<svg width="292" height="299" viewBox="0 0 292 299" fill="none" xmlns="http://www.w3.org/2000/svg">
<path d="M139.941 298V8H152.061V298H139.941Z" fill="#0A102F" stroke="#0A102F" stroke-width="2"/>
<path d="M1 159.06L1 146.94H291V159.06H1Z" fill="#0A102F" stroke="#0A102F" stroke-width="2"/>
<path d="M244.217 259.804L39.1583 54.7449L47.7283 46.1749L252.787 251.234L244.217 259.804Z" fill="#0A102F" stroke="#0A102F" stroke-width="2"/>
<path d="M47.7283 259.802L39.1583 251.232L244.217 46.1726L252.787 54.7426L47.7283 259.802Z" fill="#0A102F" stroke="#0A102F" stroke-width="2"/>
<path d="M278.04 213.367L9.47137 103.95L14.0442 92.726L282.613 202.143L278.04 213.367Z" fill="#0A102F" stroke="#0A102F" stroke-width="2"/>
<path d="M96.9495 289.632L85.7253 285.059L195.142 16.4902L206.367 21.0631L96.9495 289.632Z" fill="#0A102F" stroke="#0A102F" stroke-width="2"/>
<path d="M13.8462 212.745L9.32063 201.502L278.354 93.2158L282.879 104.459L13.8462 212.745Z" fill="#0A102F" stroke="#0A102F" stroke-width="2"/>
<path d="M194.413 289.884L86.1565 20.851L97.4001 16.3267L205.657 285.36L194.413 289.884Z" fill="#0A102F" stroke="#0A102F" stroke-width="2"/>
<path d="M153.061 0L138.941 0V292H153.061V0Z" fill="#03CD69"/>
<path d="M292 138.94H0L0 153.06H292V138.94Z" fill="#03CD69"/>
<path d="M47.7283 37.7607L37.7441 47.7449L244.217 254.218L254.202 244.234L47.7283 37.7607Z" fill="#03CD69"/>
<path d="M244.217 37.7584L37.7441 244.232L47.7283 254.216L254.202 47.7426L244.217 37.7584Z" fill="#03CD69"/>
<path d="M13.4954 84.4226L8.16797 97.499L278.589 207.671L283.917 194.594L13.4954 84.4226Z" fill="#03CD69"/>
<path d="M194.594 8.18684L84.4219 278.608L97.4983 283.936L207.67 13.5143L194.594 8.18684Z" fill="#03CD69"/>
<path d="M278.908 84.9147L8.01953 193.948L13.2919 207.047L284.18 98.0137L278.908 84.9147Z" fill="#03CD69"/>
<path d="M97.9545 8.02566L84.8555 13.2966L193.859 284.185L206.958 278.914L97.9545 8.02566Z" fill="#03CD69"/>
</svg>
