<svg width="110" height="191" viewBox="0 0 110 191" fill="none" xmlns="http://www.w3.org/2000/svg">
<path d="M3.07422 179.645L18.3643 179.792" stroke="#0A102F" stroke-width="4.33351" stroke-miterlimit="10" stroke-linecap="round"/>
<path d="M10.794 172.073L10.6465 187.363" stroke="#0A102F" stroke-width="4.33351" stroke-miterlimit="10" stroke-linecap="round"/>
<path d="M3.30859 155.502L18.5986 155.65" stroke="#0A102F" stroke-width="4.33351" stroke-miterlimit="10" stroke-linecap="round"/>
<path d="M11.0284 147.931L10.8809 163.221" stroke="#0A102F" stroke-width="4.33351" stroke-miterlimit="10" stroke-linecap="round"/>
<path d="M3.54102 131.359L18.8311 131.506" stroke="#0A102F" stroke-width="4.33351" stroke-miterlimit="10" stroke-linecap="round"/>
<path d="M11.2608 123.788L11.1133 139.078" stroke="#0A102F" stroke-width="4.33351" stroke-miterlimit="10" stroke-linecap="round"/>
<path d="M3.77344 107.217L19.0635 107.365" stroke="#0A102F" stroke-width="4.33351" stroke-miterlimit="10" stroke-linecap="round"/>
<path d="M11.4933 99.6459L11.3457 114.936" stroke="#0A102F" stroke-width="4.33351" stroke-miterlimit="10" stroke-linecap="round"/>
<path d="M4.00586 83.0737L19.2959 83.2213" stroke="#0A102F" stroke-width="4.33351" stroke-miterlimit="10" stroke-linecap="round"/>
<path d="M11.7257 75.5028L11.5781 90.7927" stroke="#0A102F" stroke-width="4.33351" stroke-miterlimit="10" stroke-linecap="round"/>
<path d="M4.23828 58.9309L19.5283 59.0785" stroke="#0A102F" stroke-width="4.33351" stroke-miterlimit="10" stroke-linecap="round"/>
<path d="M11.9581 51.36L11.8105 66.6499" stroke="#0A102F" stroke-width="4.33351" stroke-miterlimit="10" stroke-linecap="round"/>
<path d="M4.47266 34.7886L19.7627 34.9361" stroke="#0A102F" stroke-width="4.33351" stroke-miterlimit="10" stroke-linecap="round"/>
<path d="M12.1925 27.2174L12.0449 42.5073" stroke="#0A102F" stroke-width="4.33351" stroke-miterlimit="10" stroke-linecap="round"/>
<path d="M4.70508 10.6455L19.9951 10.7931" stroke="#0A102F" stroke-width="4.33351" stroke-miterlimit="10" stroke-linecap="round"/>
<path d="M12.4249 3.07434L12.2773 18.3643" stroke="#0A102F" stroke-width="4.33351" stroke-miterlimit="10" stroke-linecap="round"/>
<path d="M24.834 179.854L40.1241 180.002" stroke="#0A102F" stroke-width="4.33351" stroke-miterlimit="10" stroke-linecap="round"/>
<path d="M32.5538 172.284L32.4062 187.573" stroke="#0A102F" stroke-width="4.33351" stroke-miterlimit="10" stroke-linecap="round"/>
<path d="M25.0664 155.711L40.3565 155.859" stroke="#0A102F" stroke-width="4.33351" stroke-miterlimit="10" stroke-linecap="round"/>
<path d="M32.7862 148.141L32.6387 163.43" stroke="#0A102F" stroke-width="4.33351" stroke-miterlimit="10" stroke-linecap="round"/>
<path d="M25.2988 131.569L40.5889 131.717" stroke="#0A102F" stroke-width="4.33351" stroke-miterlimit="10" stroke-linecap="round"/>
<path d="M33.0187 123.998L32.8711 139.288" stroke="#0A102F" stroke-width="4.33351" stroke-miterlimit="10" stroke-linecap="round"/>
<path d="M25.5332 107.426L40.8233 107.574" stroke="#0A102F" stroke-width="4.33351" stroke-miterlimit="10" stroke-linecap="round"/>
<path d="M33.253 99.8553L33.1055 115.145" stroke="#0A102F" stroke-width="4.33351" stroke-miterlimit="10" stroke-linecap="round"/>
<path d="M25.7656 83.2842L41.0557 83.4317" stroke="#0A102F" stroke-width="4.33351" stroke-miterlimit="10" stroke-linecap="round"/>
<path d="M33.4855 75.7133L33.3379 91.0032" stroke="#0A102F" stroke-width="4.33351" stroke-miterlimit="10" stroke-linecap="round"/>
<path d="M25.998 59.1409L41.2882 59.2884" stroke="#0A102F" stroke-width="4.33351" stroke-miterlimit="10" stroke-linecap="round"/>
<path d="M33.7179 51.5699L33.5703 66.8599" stroke="#0A102F" stroke-width="4.33351" stroke-miterlimit="10" stroke-linecap="round"/>
<path d="M26.2324 34.9988L41.5225 35.1463" stroke="#0A102F" stroke-width="4.33351" stroke-miterlimit="10" stroke-linecap="round"/>
<path d="M33.9522 27.4271L33.8047 42.717" stroke="#0A102F" stroke-width="4.33351" stroke-miterlimit="10" stroke-linecap="round"/>
<path d="M26.4648 10.8555L41.755 11.003" stroke="#0A102F" stroke-width="4.33351" stroke-miterlimit="10" stroke-linecap="round"/>
<path d="M34.1847 3.2843L34.0371 18.5742" stroke="#0A102F" stroke-width="4.33351" stroke-miterlimit="10" stroke-linecap="round"/>
<path d="M46.623 180.065L61.8822 180.212" stroke="#0A102F" stroke-width="4.33351" stroke-miterlimit="10" stroke-linecap="round"/>
<path d="M54.3429 172.494L54.1953 187.784" stroke="#0A102F" stroke-width="4.33351" stroke-miterlimit="10" stroke-linecap="round"/>
<path d="M46.8555 155.922L62.1146 156.07" stroke="#0A102F" stroke-width="4.33351" stroke-miterlimit="10" stroke-linecap="round"/>
<path d="M54.5753 148.351L54.4277 163.641" stroke="#0A102F" stroke-width="4.33351" stroke-miterlimit="10" stroke-linecap="round"/>
<path d="M47.0898 131.78L62.349 131.927" stroke="#0A102F" stroke-width="4.33351" stroke-miterlimit="10" stroke-linecap="round"/>
<path d="M54.8097 124.209L54.6621 139.499" stroke="#0A102F" stroke-width="4.33351" stroke-miterlimit="10" stroke-linecap="round"/>
<path d="M47.3203 107.636L62.5795 107.784" stroke="#0A102F" stroke-width="4.33351" stroke-miterlimit="10" stroke-linecap="round"/>
<path d="M55.0401 100.066L54.8926 115.355" stroke="#0A102F" stroke-width="4.33351" stroke-miterlimit="10" stroke-linecap="round"/>
<path d="M47.5547 83.4937L62.8138 83.6409" stroke="#0A102F" stroke-width="4.33351" stroke-miterlimit="10" stroke-linecap="round"/>
<path d="M55.2745 75.9227L55.127 91.2126" stroke="#0A102F" stroke-width="4.33351" stroke-miterlimit="10" stroke-linecap="round"/>
<path d="M47.7871 59.3513L63.0462 59.4986" stroke="#0A102F" stroke-width="4.33351" stroke-miterlimit="10" stroke-linecap="round"/>
<path d="M55.5069 51.7801L55.3594 67.0701" stroke="#0A102F" stroke-width="4.33351" stroke-miterlimit="10" stroke-linecap="round"/>
<path d="M48.0195 35.2092L63.2787 35.3565" stroke="#0A102F" stroke-width="4.33351" stroke-miterlimit="10" stroke-linecap="round"/>
<path d="M55.7394 27.6376L55.5918 42.9275" stroke="#0A102F" stroke-width="4.33351" stroke-miterlimit="10" stroke-linecap="round"/>
<path d="M48.2539 11.0657L63.513 11.2129" stroke="#0A102F" stroke-width="4.33351" stroke-miterlimit="10" stroke-linecap="round"/>
<path d="M55.9737 3.4945L55.8262 18.7844" stroke="#0A102F" stroke-width="4.33351" stroke-miterlimit="10" stroke-linecap="round"/>
<path d="M68.3848 180.274L83.6748 180.422" stroke="#0A102F" stroke-width="4.33351" stroke-miterlimit="10" stroke-linecap="round"/>
<path d="M76.1046 172.704L75.957 187.994" stroke="#0A102F" stroke-width="4.33351" stroke-miterlimit="10" stroke-linecap="round"/>
<path d="M68.6172 156.132L83.9072 156.28" stroke="#0A102F" stroke-width="4.33351" stroke-miterlimit="10" stroke-linecap="round"/>
<path d="M76.337 148.561L76.1895 163.851" stroke="#0A102F" stroke-width="4.33351" stroke-miterlimit="10" stroke-linecap="round"/>
<path d="M68.8496 131.99L84.1397 132.137" stroke="#0A102F" stroke-width="4.33351" stroke-miterlimit="10" stroke-linecap="round"/>
<path d="M76.5694 124.419L76.4219 139.709" stroke="#0A102F" stroke-width="4.33351" stroke-miterlimit="10" stroke-linecap="round"/>
<path d="M69.082 107.847L84.3721 107.995" stroke="#0A102F" stroke-width="4.33351" stroke-miterlimit="10" stroke-linecap="round"/>
<path d="M76.8019 100.276L76.6543 115.565" stroke="#0A102F" stroke-width="4.33351" stroke-miterlimit="10" stroke-linecap="round"/>
<path d="M69.3145 83.7036L84.6045 83.8512" stroke="#0A102F" stroke-width="4.33351" stroke-miterlimit="10" stroke-linecap="round"/>
<path d="M77.0343 76.1327L76.8867 91.4226" stroke="#0A102F" stroke-width="4.33351" stroke-miterlimit="10" stroke-linecap="round"/>
<path d="M69.5488 59.5613L84.8389 59.7088" stroke="#0A102F" stroke-width="4.33351" stroke-miterlimit="10" stroke-linecap="round"/>
<path d="M77.2687 51.9901L77.1211 67.28" stroke="#0A102F" stroke-width="4.33351" stroke-miterlimit="10" stroke-linecap="round"/>
<path d="M69.7812 35.4189L85.0713 35.5665" stroke="#0A102F" stroke-width="4.33351" stroke-miterlimit="10" stroke-linecap="round"/>
<path d="M77.5011 27.8473L77.3535 43.1372" stroke="#0A102F" stroke-width="4.33351" stroke-miterlimit="10" stroke-linecap="round"/>
<path d="M70.0156 11.2759L85.3057 11.4234" stroke="#0A102F" stroke-width="4.33351" stroke-miterlimit="10" stroke-linecap="round"/>
<path d="M77.7355 3.70495L77.5879 18.9949" stroke="#0A102F" stroke-width="4.33351" stroke-miterlimit="10" stroke-linecap="round"/>
<path d="M90.1719 180.485L105.431 180.632" stroke="#0A102F" stroke-width="4.33351" stroke-miterlimit="10" stroke-linecap="round"/>
<path d="M97.8917 172.914L97.7441 188.204" stroke="#0A102F" stroke-width="4.33351" stroke-miterlimit="10" stroke-linecap="round"/>
<path d="M90.4062 156.342L105.665 156.49" stroke="#0A102F" stroke-width="4.33351" stroke-miterlimit="10" stroke-linecap="round"/>
<path d="M98.1261 148.771L97.9785 164.061" stroke="#0A102F" stroke-width="4.33351" stroke-miterlimit="10" stroke-linecap="round"/>
<path d="M90.6406 132.199L105.9 132.346" stroke="#0A102F" stroke-width="4.33351" stroke-miterlimit="10" stroke-linecap="round"/>
<path d="M98.3605 124.628L98.2129 139.918" stroke="#0A102F" stroke-width="4.33351" stroke-miterlimit="10" stroke-linecap="round"/>
<path d="M90.8711 108.057L106.13 108.204" stroke="#0A102F" stroke-width="4.33351" stroke-miterlimit="10" stroke-linecap="round"/>
<path d="M98.5909 100.486L98.4434 115.776" stroke="#0A102F" stroke-width="4.33351" stroke-miterlimit="10" stroke-linecap="round"/>
<path d="M91.1055 83.9141L106.365 84.0613" stroke="#0A102F" stroke-width="4.33351" stroke-miterlimit="10" stroke-linecap="round"/>
<path d="M98.8253 76.3431L98.6777 91.6331" stroke="#0A102F" stroke-width="4.33351" stroke-miterlimit="10" stroke-linecap="round"/>
<path d="M91.3379 59.7712L106.597 59.9185" stroke="#0A102F" stroke-width="4.33351" stroke-miterlimit="10" stroke-linecap="round"/>
<path d="M99.0577 52.2001L98.9102 67.49" stroke="#0A102F" stroke-width="4.33351" stroke-miterlimit="10" stroke-linecap="round"/>
<path d="M91.5703 35.6287L106.829 35.7759" stroke="#0A102F" stroke-width="4.33351" stroke-miterlimit="10" stroke-linecap="round"/>
<path d="M99.2901 28.0575L99.1426 43.3474" stroke="#0A102F" stroke-width="4.33351" stroke-miterlimit="10" stroke-linecap="round"/>
<path d="M91.8047 11.4854L107.064 11.6326" stroke="#0A102F" stroke-width="4.33351" stroke-miterlimit="10" stroke-linecap="round"/>
<path d="M99.5245 3.91443L99.377 19.2043" stroke="#0A102F" stroke-width="4.33351" stroke-miterlimit="10" stroke-linecap="round"/>
</svg>
