<svg width="535" height="524" viewBox="0 0 535 524" fill="none" xmlns="http://www.w3.org/2000/svg">
<path d="M534.756 265.512C534.756 283.541 477.836 295.002 473.973 311.872C469.981 329.257 516.341 364.284 508.743 379.995C501.016 395.964 444.74 381.541 433.794 395.32C422.719 409.099 449.376 460.739 435.468 471.814C421.689 482.76 377.261 445.415 361.292 453.141C345.581 460.739 347.127 518.818 329.613 522.81C312.743 526.674 288.919 473.746 270.89 473.746C252.861 473.746 229.037 526.674 212.167 522.81C194.782 518.818 196.327 460.739 180.488 453.141C164.519 445.415 120.091 482.76 106.311 471.814C92.5321 460.739 119.06 409.099 107.986 395.32C97.0394 381.541 40.7633 396.093 33.0366 379.995C25.4387 364.284 71.6701 329.257 67.8067 311.872C63.9434 295.002 7.02344 283.541 7.02344 265.512C7.02344 247.483 63.9434 236.021 67.8067 219.151C71.7988 201.766 25.4387 166.739 33.0366 151.028C40.7633 135.059 97.0394 149.482 107.986 135.703C119.06 121.924 92.4034 70.2839 106.311 59.209C120.091 48.2629 164.519 85.6085 180.488 77.8819C196.199 70.2839 194.653 12.205 212.167 8.21289C229.037 4.34954 252.861 57.2774 270.89 57.2774C288.919 57.2774 312.743 4.34954 329.613 8.21289C347.127 12.205 345.581 70.2839 361.292 77.8819C377.261 85.6085 421.689 48.2629 435.468 59.209C449.248 70.2839 422.719 121.924 433.794 135.703C444.74 149.482 501.016 134.931 508.743 151.028C516.341 166.739 470.11 201.766 473.973 219.151C477.836 236.021 534.756 247.483 534.756 265.512Z" fill="#0A102F"/>
<path d="M527.733 258.488C527.733 276.517 470.813 287.979 466.95 304.849C462.957 322.234 509.318 357.261 501.72 372.972C493.993 388.941 437.717 374.518 426.771 388.297C415.696 402.076 442.353 453.716 428.445 464.791C414.666 475.737 370.237 438.391 354.269 446.118C338.558 453.716 340.103 511.795 322.589 515.787C305.719 519.65 281.895 466.723 263.866 466.723C245.837 466.723 222.014 519.65 205.144 515.787C187.759 511.795 189.304 453.716 173.464 446.118C157.496 438.391 113.067 475.737 99.2879 464.791C85.5087 453.716 112.037 402.076 100.962 388.297C90.0159 374.518 33.7399 389.069 26.0132 372.972C18.4153 357.261 64.6466 322.234 60.7833 304.849C56.9199 287.979 0 276.517 0 258.488C0 240.459 56.9199 228.998 60.7833 212.128C64.7754 194.743 18.4153 159.716 26.0132 144.005C33.7399 128.036 90.0159 142.459 100.962 128.68C112.037 114.901 85.3799 63.2608 99.2879 52.1858C113.067 41.2397 157.496 78.5854 173.464 70.8587C189.175 63.2608 187.63 5.18181 205.144 1.18969C222.014 -2.67365 245.837 50.2542 263.866 50.2542C281.895 50.2542 305.719 -2.67365 322.589 1.18969C340.103 5.18181 338.558 63.2608 354.269 70.8587C370.237 78.5854 414.666 41.2397 428.445 52.1858C442.224 63.2608 415.696 114.901 426.771 128.68C437.717 142.459 493.993 127.907 501.72 144.005C509.318 159.716 463.086 194.743 466.95 212.128C470.813 228.998 527.733 240.459 527.733 258.488Z" fill="#75BBFF"/>
</svg>
