<svg width="156" height="24" viewBox="0 0 156 24" fill="none" xmlns="http://www.w3.org/2000/svg">
<path d="M109.409 18V6.36364H113.341C114.25 6.36364 114.996 6.51894 115.58 6.82955C116.163 7.13636 116.595 7.55871 116.875 8.09659C117.155 8.63447 117.295 9.24621 117.295 9.93182C117.295 10.6174 117.155 11.2254 116.875 11.7557C116.595 12.286 116.165 12.7027 115.585 13.0057C115.006 13.3049 114.265 13.4545 113.364 13.4545H110.182V12.1818H113.318C113.939 12.1818 114.439 12.0909 114.818 11.9091C115.201 11.7273 115.477 11.4697 115.648 11.1364C115.822 10.7992 115.909 10.3977 115.909 9.93182C115.909 9.46591 115.822 9.05871 115.648 8.71023C115.473 8.36174 115.195 8.0928 114.812 7.90341C114.43 7.71023 113.924 7.61364 113.295 7.61364H110.818V18H109.409ZM114.886 12.7727L117.75 18H116.114L113.295 12.7727H114.886ZM122.03 18.2045C121.477 18.2045 120.975 18.1004 120.524 17.892C120.073 17.6799 119.715 17.375 119.45 16.9773C119.185 16.5758 119.053 16.0909 119.053 15.5227C119.053 15.0227 119.151 14.6174 119.348 14.3068C119.545 13.9924 119.808 13.7462 120.138 13.5682C120.467 13.3902 120.831 13.2576 121.229 13.1705C121.63 13.0795 122.034 13.0076 122.439 12.9545C122.969 12.8864 123.399 12.8352 123.729 12.8011C124.062 12.7633 124.304 12.7008 124.456 12.6136C124.611 12.5265 124.689 12.375 124.689 12.1591V12.1136C124.689 11.553 124.536 11.1174 124.229 10.8068C123.926 10.4962 123.465 10.3409 122.848 10.3409C122.208 10.3409 121.706 10.4811 121.342 10.7614C120.979 11.0417 120.723 11.3409 120.575 11.6591L119.303 11.2045C119.53 10.6742 119.833 10.2614 120.212 9.96591C120.594 9.66667 121.011 9.45833 121.462 9.34091C121.916 9.2197 122.363 9.15909 122.803 9.15909C123.083 9.15909 123.405 9.19318 123.768 9.26136C124.136 9.32576 124.49 9.46023 124.831 9.66477C125.176 9.86932 125.462 10.178 125.689 10.5909C125.916 11.0038 126.03 11.5568 126.03 12.25V18H124.689V16.8182H124.621C124.53 17.0076 124.378 17.2102 124.166 17.4261C123.954 17.642 123.672 17.8258 123.32 17.9773C122.967 18.1288 122.537 18.2045 122.03 18.2045ZM122.234 17C122.765 17 123.212 16.8958 123.575 16.6875C123.943 16.4792 124.219 16.2102 124.405 15.8807C124.594 15.5511 124.689 15.2045 124.689 14.8409V13.6136C124.632 13.6818 124.507 13.7443 124.314 13.8011C124.125 13.8542 123.905 13.9015 123.655 13.9432C123.409 13.9811 123.168 14.0152 122.933 14.0455C122.702 14.072 122.515 14.0947 122.371 14.1136C122.022 14.1591 121.696 14.233 121.393 14.3352C121.094 14.4337 120.852 14.5833 120.666 14.7841C120.484 14.9811 120.393 15.25 120.393 15.5909C120.393 16.0568 120.566 16.4091 120.911 16.6477C121.259 16.8826 121.7 17 122.234 17ZM132.273 9.27273V10.4091H127.75V9.27273H132.273ZM129.068 7.18182H130.409V15.5C130.409 15.8788 130.464 16.1629 130.574 16.3523C130.688 16.5379 130.831 16.6629 131.006 16.7273C131.184 16.7879 131.371 16.8182 131.568 16.8182C131.716 16.8182 131.837 16.8106 131.932 16.7955C132.027 16.7765 132.102 16.7614 132.159 16.75L132.432 17.9545C132.341 17.9886 132.214 18.0227 132.051 18.0568C131.888 18.0947 131.682 18.1136 131.432 18.1136C131.053 18.1136 130.682 18.0322 130.318 17.8693C129.958 17.7064 129.659 17.4583 129.42 17.125C129.186 16.7917 129.068 16.3712 129.068 15.8636V7.18182ZM134.29 18V9.27273H135.631V18H134.29ZM134.972 7.81818C134.71 7.81818 134.485 7.72917 134.295 7.55114C134.11 7.37311 134.017 7.15909 134.017 6.90909C134.017 6.65909 134.11 6.44508 134.295 6.26705C134.485 6.08902 134.71 6 134.972 6C135.233 6 135.456 6.08902 135.642 6.26705C135.831 6.44508 135.926 6.65909 135.926 6.90909C135.926 7.15909 135.831 7.37311 135.642 7.55114C135.456 7.72917 135.233 7.81818 134.972 7.81818ZM139.428 12.75V18H138.087V9.27273H139.382V10.6364H139.496C139.7 10.1932 140.011 9.83712 140.428 9.56818C140.844 9.29545 141.382 9.15909 142.041 9.15909C142.632 9.15909 143.149 9.2803 143.592 9.52273C144.036 9.76136 144.38 10.125 144.626 10.6136C144.873 11.0985 144.996 11.7121 144.996 12.4545V18H143.655V12.5455C143.655 11.8598 143.477 11.3258 143.121 10.9432C142.765 10.5568 142.276 10.3636 141.655 10.3636C141.227 10.3636 140.844 10.4564 140.507 10.642C140.174 10.8277 139.911 11.0985 139.717 11.4545C139.524 11.8106 139.428 12.2424 139.428 12.75ZM150.969 21.4545C150.321 21.4545 149.764 21.3712 149.298 21.2045C148.832 21.0417 148.444 20.8258 148.134 20.5568C147.827 20.2917 147.582 20.0076 147.401 19.7045L148.469 18.9545C148.59 19.1136 148.743 19.2955 148.929 19.5C149.115 19.7083 149.368 19.8883 149.69 20.0398C150.016 20.1951 150.442 20.2727 150.969 20.2727C151.673 20.2727 152.255 20.1023 152.713 19.7614C153.171 19.4205 153.401 18.8864 153.401 18.1591V16.3864H153.287C153.188 16.5455 153.048 16.7424 152.866 16.9773C152.688 17.2083 152.431 17.4148 152.094 17.5966C151.76 17.7746 151.31 17.8636 150.741 17.8636C150.037 17.8636 149.404 17.697 148.844 17.3636C148.287 17.0303 147.846 16.5455 147.52 15.9091C147.198 15.2727 147.037 14.5 147.037 13.5909C147.037 12.697 147.194 11.9186 147.509 11.2557C147.823 10.589 148.26 10.0739 148.821 9.71023C149.382 9.3428 150.029 9.15909 150.764 9.15909C151.332 9.15909 151.783 9.25379 152.116 9.44318C152.454 9.62879 152.711 9.84091 152.889 10.0795C153.071 10.3144 153.211 10.5076 153.31 10.6591H153.446V9.27273H154.741V18.25C154.741 19 154.571 19.6098 154.23 20.0795C153.893 20.553 153.438 20.8996 152.866 21.1193C152.298 21.3428 151.666 21.4545 150.969 21.4545ZM150.923 16.6591C151.461 16.6591 151.916 16.536 152.287 16.2898C152.658 16.0436 152.94 15.6894 153.134 15.2273C153.327 14.7652 153.423 14.2121 153.423 13.5682C153.423 12.9394 153.329 12.3845 153.139 11.9034C152.95 11.4223 152.67 11.0455 152.298 10.7727C151.927 10.5 151.469 10.3636 150.923 10.3636C150.355 10.3636 149.882 10.5076 149.503 10.7955C149.128 11.0833 148.846 11.4697 148.656 11.9545C148.471 12.4394 148.378 12.9773 148.378 13.5682C148.378 14.1742 148.473 14.7102 148.662 15.1761C148.855 15.6383 149.139 16.0019 149.514 16.267C149.893 16.5284 150.363 16.6591 150.923 16.6591Z" fill="#0A102F"/>
<path d="M17.8804 10.4952H11.0492L8.9464 4L6.83112 10.4952L0 10.4827L5.52462 14.5018L3.40934 20.9969L8.93396 16.9779L14.4586 20.9969L12.3557 14.5018L17.8804 10.4952Z" fill="#00B67A"/>
<path d="M12.8294 15.97L12.3566 14.5017L8.94727 16.9778L12.8294 15.97Z" fill="#005128"/>
<path d="M39.1597 10.4952H32.3285L30.2257 4L28.1104 10.4952L21.2793 10.4827L26.8039 14.5018L24.6886 20.9969L30.2133 16.9779L35.7379 20.9969L33.635 14.5018L39.1597 10.4952Z" fill="#00B67A"/>
<path d="M34.1087 15.9697L33.6359 14.5015L30.2266 16.9776L34.1087 15.9697Z" fill="#005128"/>
<path d="M60.439 10.4952H53.6078L51.505 4L49.3897 10.4952L42.5586 10.4827L48.0832 14.5018L45.9679 20.9969L51.4926 16.9779L57.0172 20.9969L54.9143 14.5018L60.439 10.4952Z" fill="#00B67A"/>
<path d="M55.388 15.9697L54.9152 14.5015L51.5059 16.9776L55.388 15.9697Z" fill="#005128"/>
<path d="M81.7202 10.4952H74.8891L72.7862 4L70.671 10.4952L63.8398 10.4827L69.3645 14.5018L67.2492 20.9969L72.7738 16.9779L78.2984 20.9969L76.1956 14.5018L81.7202 10.4952Z" fill="#00B67A"/>
<path d="M76.6693 15.97L76.1964 14.5017L72.7871 16.9778L76.6693 15.97Z" fill="#005128"/>
<path d="M103 10.4952H96.1684L94.0655 4L91.9503 10.4952L85.1191 10.4827L90.6438 14.5018L88.5285 20.9969L94.0531 16.9779L99.5777 20.9969L97.4749 14.5018L103 10.4952Z" fill="#00B67A"/>
<path d="M97.9486 15.97L97.4757 14.5017L94.0664 16.9778L97.9486 15.97Z" fill="#005128"/>
</svg>
