<svg width="184" height="44" viewBox="0 0 184 44" fill="none" xmlns="http://www.w3.org/2000/svg">
<path d="M56.1035 30.4443H69.0497V26.5447H60.7049V11.8567H56.1035V30.4443Z" fill="#0A102F"/>
<path d="M76.7202 27.8445C74.8744 27.8445 73.9125 26.2328 73.9125 23.8152C73.9125 21.3974 74.8744 19.7597 76.7202 19.7597C78.5659 19.7597 79.5537 21.3974 79.5537 23.8152C79.5537 26.2328 78.5659 27.8445 76.7202 27.8445ZM76.7462 30.8602C81.0355 30.8602 83.8432 27.8186 83.8432 23.8152C83.8432 19.8116 81.0355 16.77 76.7462 16.77C72.4826 16.77 69.623 19.8116 69.623 23.8152C69.623 27.8186 72.4826 30.8602 76.7462 30.8602Z" fill="#0A102F"/>
<path d="M91.2675 35.0458C93.2433 35.0458 94.9851 34.6039 96.1548 33.564C97.2207 32.6021 97.9226 31.1462 97.9226 29.1445V17.1341H93.8673V18.5639H93.8152C93.0353 17.4461 91.8395 16.7441 90.0717 16.7441C86.7701 16.7441 84.4824 19.4998 84.4824 23.3993C84.4824 27.4807 87.264 29.7165 90.2537 29.7165C91.8655 29.7165 92.8793 29.0665 93.6592 28.1826H93.7632V29.5085C93.7632 31.1203 93.0093 32.0562 91.2156 32.0562C89.8117 32.0562 89.1098 31.4583 88.8759 30.7564H84.7684C85.1843 33.538 87.602 35.0458 91.2675 35.0458ZM91.2416 26.5709C89.6558 26.5709 88.6159 25.2711 88.6159 23.2693C88.6159 21.2416 89.6558 19.9418 91.2416 19.9418C93.0093 19.9418 93.9452 21.4495 93.9452 23.2433C93.9452 25.115 93.0872 26.5709 91.2416 26.5709Z" fill="#0A102F"/>
<path d="M106.261 27.8445C104.415 27.8445 103.453 26.2328 103.453 23.8152C103.453 21.3974 104.415 19.7597 106.261 19.7597C108.107 19.7597 109.095 21.3974 109.095 23.8152C109.095 26.2328 108.107 27.8445 106.261 27.8445ZM106.287 30.8602C110.577 30.8602 113.384 27.8186 113.384 23.8152C113.384 19.8116 110.577 16.77 106.287 16.77C102.024 16.77 99.1641 19.8116 99.1641 23.8152C99.1641 27.8186 102.024 30.8602 106.287 30.8602Z" fill="#0A102F"/>
<path d="M114.621 30.4443H118.858V17.134H114.621V30.4443ZM114.621 15.2882H118.858V11.8567H114.621V15.2882Z" fill="#0A102F"/>
<path d="M120.699 34.8378H124.936V29.0665H124.989C125.821 30.1844 127.042 30.8604 128.758 30.8604C132.241 30.8604 134.555 28.1047 134.555 23.7893C134.555 19.7857 132.398 16.7441 128.862 16.7441C127.042 16.7441 125.743 17.5501 124.832 18.7459H124.755V17.1341H120.699V34.8378ZM127.667 27.5847C125.847 27.5847 124.807 26.1029 124.807 23.9453C124.807 21.7875 125.743 20.1497 127.589 20.1497C129.409 20.1497 130.266 21.6575 130.266 23.9453C130.266 26.2069 129.278 27.5847 127.667 27.5847Z" fill="#0A102F"/>
<path d="M141.454 30.8604C144.937 30.8604 147.511 29.3525 147.511 26.4409C147.511 23.0353 144.756 22.4374 142.417 22.0474C140.726 21.7355 139.219 21.6056 139.219 20.6696C139.219 19.8378 140.024 19.4478 141.064 19.4478C142.234 19.4478 143.04 19.8118 143.196 21.0076H147.095C146.888 18.3819 144.86 16.7441 141.09 16.7441C137.944 16.7441 135.344 18.2 135.344 21.0076C135.344 24.1272 137.815 24.7512 140.128 25.1411C141.896 25.4531 143.507 25.583 143.507 26.7788C143.507 27.6367 142.702 28.1047 141.428 28.1047C140.024 28.1047 139.141 27.4548 138.984 26.129H134.98C135.111 29.0665 137.554 30.8604 141.454 30.8604Z" fill="#0A102F"/>
<path d="M153.268 30.8342C155.113 30.8342 156.283 30.1063 157.244 28.8065H157.323V30.4442H161.379V17.134H157.141V24.5691C157.141 26.1549 156.257 27.2467 154.801 27.2467C153.449 27.2467 152.799 26.4408 152.799 24.985V17.134H148.588V25.8689C148.588 28.8325 150.199 30.8342 153.268 30.8342Z" fill="#0A102F"/>
<path d="M163.221 30.4443H167.458V22.9834C167.458 21.3976 168.237 20.2797 169.564 20.2797C170.837 20.2797 171.435 21.1116 171.435 22.5414V30.4443H175.674V22.9834C175.674 21.3976 176.427 20.2797 177.778 20.2797C179.053 20.2797 179.65 21.1116 179.65 22.5414V30.4443H183.888V21.7875C183.888 18.7979 182.38 16.7441 179.365 16.7441C177.649 16.7441 176.219 17.4721 175.179 19.0838H175.127C174.451 17.6541 173.126 16.7441 171.384 16.7441C169.46 16.7441 168.186 17.6541 167.354 19.0319H167.276V17.1341H163.221V30.4443Z" fill="#0A102F"/>
<path fill-rule="evenodd" clip-rule="evenodd" d="M22.3337 43.4424C34.2983 43.4424 43.9977 33.7432 43.9977 21.7786C43.9977 9.81398 34.2983 0.114746 22.3337 0.114746C10.3691 0.114746 0.669922 9.81398 0.669922 21.7786C0.669922 33.7432 10.3691 43.4424 22.3337 43.4424ZM29.0922 10.2067C29.4211 9.03814 28.2871 8.34715 27.2514 9.08499L12.7942 19.3842C11.6711 20.1845 11.8477 21.7786 13.0596 21.7786H16.8666V21.7491H24.2862L18.2406 23.8822L15.5754 33.3506C15.2465 34.5191 16.3804 35.21 17.416 34.4722L31.8733 24.173C32.9965 23.3728 32.8197 21.7786 31.608 21.7786H25.8348L29.0922 10.2067Z" fill="#AB79FF"/>
</svg>
