<svg width="100" height="101" viewBox="0 0 100 101" fill="none" xmlns="http://www.w3.org/2000/svg">
<rect x="7.57444" y="8.57395" width="91.75" height="91.75" rx="6.08405" fill="#0A102F" stroke="#0A102F" stroke-width="1.35201"/>
<rect x="0.676005" y="0.676005" width="91.75" height="91.75" rx="6.08405" fill="#FCFAFF" stroke="#0A102F" stroke-width="1.35201"/>
<path d="M71.3677 46.93C71.3677 60.4201 60.4314 71.3687 46.929 71.3687C33.4266 71.3687 22.4902 60.4201 22.4902 46.93C22.4902 33.4275 33.4266 22.4912 46.929 22.4912C60.4314 22.4912 71.3677 33.4275 71.3677 46.93Z" fill="#283544"/>
<path d="M58.3853 40.7458C58.2519 40.8236 55.0773 42.4654 55.0773 46.1057C55.2269 50.2572 59.0835 51.7131 59.1497 51.7131C59.0835 51.7909 58.5674 53.6964 57.0387 55.6939C55.8254 57.4145 54.4788 59.1492 52.4339 59.1492C50.4888 59.1492 49.7905 58.0025 47.5461 58.0025C45.1359 58.0025 44.4539 59.1492 42.6085 59.1492C40.5636 59.1492 39.1172 57.3215 37.8378 55.6171C36.1757 53.3862 34.7629 49.8854 34.713 46.524C34.6794 44.7427 35.0459 42.9918 35.9762 41.5046C37.2892 39.4283 39.6333 38.0189 42.1932 37.9724C44.1546 37.9108 45.9003 39.2272 47.0973 39.2272C48.2444 39.2272 50.389 37.9724 52.8155 37.9724C53.8629 37.9734 56.6559 38.2674 58.3853 40.7458ZM46.9314 37.6167C46.5822 35.9901 47.5461 34.3634 48.4439 33.3258C49.591 32.071 51.4028 31.2192 52.9652 31.2192C53.0649 32.8459 52.4328 34.4412 51.303 35.6031C50.2893 36.858 48.5436 37.8027 46.9314 37.6167Z" fill="white"/>
</svg>
