<svg width="100" height="100" viewBox="0 0 100 100" fill="none" xmlns="http://www.w3.org/2000/svg">
<rect x="7.57444" y="7.57395" width="91.75" height="91.75" rx="6.08405" fill="#0A102F" stroke="#0A102F" stroke-width="1.35201"/>
<rect x="0.676005" y="0.676005" width="91.75" height="91.75" rx="6.08405" fill="#FCFAFF" stroke="#0A102F" stroke-width="1.35201"/>
<circle cx="46.929" cy="46.93" r="24.4387" fill="#0F287F"/>
<path fill-rule="evenodd" clip-rule="evenodd" d="M38.2008 32.9648L29.4727 38.2017L38.2008 43.4386L29.4727 48.6755L38.2008 53.9123L46.9289 48.6755L55.657 53.9123L64.3852 48.6755L55.657 43.4386L64.3852 38.2017L55.657 32.9648L46.9289 38.2017L38.2008 32.9648ZM46.9289 38.2017L55.657 43.4386L46.9289 48.6755L38.2008 43.4386L46.9289 38.2017Z" fill="#DAF8FE"/>
<path d="M38.2008 57.4036L46.9289 52.1667L55.657 57.4036L46.9289 62.6405L38.2008 57.4036Z" fill="#DAF8FE"/>
</svg>
