<svg width="100" height="100" viewBox="0 0 100 100" fill="none" xmlns="http://www.w3.org/2000/svg">
<rect x="7.57444" y="7.57395" width="91.75" height="91.75" rx="6.08405" fill="#0A102F" stroke="#0A102F" stroke-width="1.35201"/>
<rect x="0.676005" y="0.676005" width="91.75" height="91.75" rx="6.08405" fill="#FCFAFF" stroke="#0A102F" stroke-width="1.35201"/>
<path fill-rule="evenodd" clip-rule="evenodd" d="M46.9297 46.93C46.9297 43.0737 50.0559 39.9475 53.9122 39.9475C57.7685 39.9475 60.8947 43.0737 60.8947 46.93C60.8947 50.7863 57.7685 53.9125 53.9122 53.9125C50.0559 53.9125 46.9297 50.7863 46.9297 46.93Z" fill="#1ABCFE"/>
<path fill-rule="evenodd" clip-rule="evenodd" d="M32.9668 60.8949C32.9668 57.0385 36.093 53.9124 39.9493 53.9124H46.9318V60.8949C46.9318 64.7512 43.8056 67.8774 39.9493 67.8774C36.093 67.8774 32.9668 64.7512 32.9668 60.8949Z" fill="#0ACF83"/>
<path fill-rule="evenodd" clip-rule="evenodd" d="M46.9297 25.9824V39.9474H53.9122C57.7685 39.9474 60.8947 36.8213 60.8947 32.9649C60.8947 29.1086 57.7685 25.9824 53.9122 25.9824H46.9297Z" fill="#FF7262"/>
<path fill-rule="evenodd" clip-rule="evenodd" d="M32.9668 32.9649C32.9668 36.8213 36.093 39.9474 39.9493 39.9474H46.9318V25.9824H39.9493C36.093 25.9824 32.9668 29.1086 32.9668 32.9649Z" fill="#F24E1E"/>
<path fill-rule="evenodd" clip-rule="evenodd" d="M32.9668 46.93C32.9668 50.7863 36.093 53.9125 39.9493 53.9125H46.9318V39.9475H39.9493C36.093 39.9475 32.9668 43.0737 32.9668 46.93Z" fill="#A259FF"/>
</svg>
