<svg width="100" height="100" viewBox="0 0 100 100" fill="none" xmlns="http://www.w3.org/2000/svg">
<rect x="7.57444" y="7.57395" width="91.75" height="91.75" rx="6.08405" fill="#0A102F" stroke="#0A102F" stroke-width="1.35201"/>
<rect x="0.676005" y="0.676005" width="91.75" height="91.75" rx="6.08405" fill="#FCFAFF" stroke="#0A102F" stroke-width="1.35201"/>
<path d="M69.6056 37.7246C68.5426 35.1602 66.3879 32.3916 64.6966 31.517C66.0733 34.2223 66.8696 36.9358 67.174 38.9604C67.174 38.9604 67.174 38.9747 67.1791 39.0013C64.4125 32.0885 59.7204 29.3006 55.8888 23.2317C55.6943 22.9256 55.5008 22.6195 55.3114 22.2919C55.2045 22.1072 55.118 21.9398 55.0426 21.7816C54.8838 21.4748 54.7612 21.1505 54.6771 20.8152C54.6777 20.7993 54.6725 20.7837 54.6623 20.7715C54.6522 20.7592 54.6378 20.7512 54.6221 20.7489C54.6071 20.7448 54.5913 20.7448 54.5763 20.7489C54.5722 20.7508 54.5684 20.7532 54.5651 20.756C54.5589 20.756 54.5528 20.7632 54.5467 20.7652L54.5569 20.752C48.4097 24.3604 46.3244 31.0354 46.1329 34.3754C43.6765 34.5438 41.3278 35.4503 39.3932 36.9766C39.191 36.8053 38.9795 36.6451 38.7598 36.497C38.2023 34.541 38.1787 32.4709 38.6916 30.5027C36.1775 31.6507 34.2225 33.4621 32.801 35.0653H32.7898C31.8194 33.8335 31.8876 29.771 31.9426 28.923C31.9314 28.8699 31.2197 29.2934 31.128 29.3577C30.2718 29.9699 29.4713 30.657 28.7362 31.4109C27.8996 32.261 27.1353 33.1795 26.4512 34.157C24.8774 36.3923 23.7613 38.918 23.1674 41.5882C23.1562 41.6413 23.146 41.6964 23.1348 41.7504C23.089 41.9658 22.923 43.0465 22.8935 43.2812V43.3353C22.6771 44.4519 22.5423 45.5829 22.4902 46.7192V46.8447C22.4902 60.3885 33.4466 71.3689 46.9608 71.3689C59.0647 71.3689 69.1138 62.5622 71.0821 50.994C71.1228 50.6807 71.1564 50.3643 71.1931 50.048C71.6798 45.8416 71.1391 41.4208 69.6056 37.7246ZM41.4001 56.922C41.5142 56.976 41.6221 57.0363 41.7392 57.0893L41.7555 57.0995C41.6384 57.0424 41.5193 56.9832 41.4011 56.922H41.4001ZM67.1812 39.0125V38.989V39.0155V39.0125Z" fill="url(#paint0_linear_1_1450)"/>
<path d="M69.6084 37.7244C68.5454 35.16 66.3907 32.3914 64.6994 31.5168C66.0761 34.2221 66.8724 36.9356 67.1768 38.9602V39.0103C69.4862 45.2842 68.2277 51.6642 66.4152 55.5625C63.6109 61.5935 56.8223 67.7756 46.1948 67.4746C34.7222 67.148 24.6079 58.6056 22.7191 47.4262C22.3749 45.6618 22.7191 44.7668 22.8922 43.3351C22.6814 44.4382 22.601 44.7576 22.4961 46.719V46.8445C22.4961 60.3883 33.4524 71.3687 46.9666 71.3687C59.0706 71.3687 69.1197 62.562 71.0879 50.9938C71.1287 50.6805 71.1623 50.3641 71.1989 50.0478C71.6826 45.8414 71.1419 41.4206 69.6084 37.7244Z" fill="url(#paint1_radial_1_1450)"/>
<path d="M69.6084 37.7244C68.5454 35.16 66.3907 32.3914 64.6994 31.5168C66.0761 34.2221 66.8724 36.9356 67.1768 38.9602V39.0103C69.4862 45.2842 68.2277 51.6642 66.4152 55.5625C63.6109 61.5935 56.8223 67.7756 46.1948 67.4746C34.7222 67.148 24.6079 58.6056 22.7191 47.4262C22.3749 45.6618 22.7191 44.7668 22.8922 43.3351C22.6814 44.4382 22.601 44.7576 22.4961 46.719V46.8445C22.4961 60.3883 33.4524 71.3687 46.9666 71.3687C59.0706 71.3687 69.1197 62.562 71.0879 50.9938C71.1287 50.6805 71.1623 50.3641 71.1989 50.0478C71.6826 45.8414 71.1419 41.4206 69.6084 37.7244Z" fill="url(#paint2_radial_1_1450)"/>
<path d="M57.7144 40.6062C57.7683 40.644 57.8162 40.6817 57.8671 40.7195C57.253 39.6266 56.4878 38.6262 55.5944 37.7479C47.9881 30.1248 53.6006 21.2181 54.5466 20.765L54.5568 20.7517C48.4096 24.3601 46.3242 31.0351 46.1328 34.3752C46.4179 34.3558 46.702 34.3313 46.9922 34.3313C51.5794 34.3313 55.575 36.86 57.7144 40.6062Z" fill="url(#paint3_radial_1_1450)"/>
<path d="M47.0072 42.1289C46.9675 42.7412 44.817 44.8434 44.0645 44.8434C37.1058 44.8434 35.9766 49.0621 35.9766 49.0621C36.282 52.6154 38.7523 55.5411 41.7409 57.0892C41.8773 57.1596 42.0148 57.2229 42.1482 57.2862C42.3875 57.3882 42.6278 57.4903 42.867 57.5811C43.8919 57.9434 44.9652 58.1498 46.0511 58.1934C58.2477 58.7669 60.6121 43.578 51.8093 39.1675C54.0627 38.7746 56.4026 39.6839 57.709 40.6033C55.5707 36.8571 51.5741 34.3284 46.9869 34.3284C46.6967 34.3284 46.4126 34.3529 46.1275 34.3722C43.6728 34.5427 41.3263 35.4502 39.3938 36.9765C39.7675 37.2939 40.1891 37.7164 41.076 38.5919C42.7398 40.237 46.9981 41.9299 47.0072 42.1289Z" fill="url(#paint4_radial_1_1450)"/>
<path d="M47.0072 42.1289C46.9675 42.7412 44.817 44.8434 44.0645 44.8434C37.1058 44.8434 35.9766 49.0621 35.9766 49.0621C36.282 52.6154 38.7523 55.5411 41.7409 57.0892C41.8773 57.1596 42.0148 57.2229 42.1482 57.2862C42.3875 57.3882 42.6278 57.4903 42.867 57.5811C43.8919 57.9434 44.9652 58.1498 46.0511 58.1934C58.2477 58.7669 60.6121 43.578 51.8093 39.1675C54.0627 38.7746 56.4026 39.6839 57.709 40.6033C55.5707 36.8571 51.5741 34.3284 46.9869 34.3284C46.6967 34.3284 46.4126 34.3529 46.1275 34.3722C43.6728 34.5427 41.3263 35.4502 39.3938 36.9765C39.7675 37.2939 40.1891 37.7164 41.076 38.5919C42.7398 40.237 46.9981 41.9299 47.0072 42.1289Z" fill="url(#paint5_radial_1_1450)"/>
<path d="M38.2583 36.1613C38.4568 36.2898 38.6197 36.398 38.7674 36.497C38.2099 34.541 38.1863 32.4709 38.6992 30.5027C36.1851 31.6507 34.2301 33.4621 32.8086 35.0653C32.9237 35.0622 36.4733 34.9979 38.2583 36.1613Z" fill="url(#paint6_radial_1_1450)"/>
<path d="M22.7167 47.4262C24.6055 58.6056 34.7198 67.148 46.2005 67.4746C56.828 67.7756 63.6126 61.5935 66.4209 55.5625C68.2334 51.6632 69.4919 45.2842 67.1826 39.0103V38.9633C67.1826 38.9694 67.1826 38.9776 67.1876 39.0041C68.0552 44.6852 65.1725 50.1886 60.6658 53.9103C60.6611 53.9208 60.6567 53.9313 60.6525 53.942C51.8701 61.1088 43.4665 58.2657 41.765 57.1055C41.6469 57.0483 41.5278 56.9891 41.4097 56.9279C36.2889 54.4787 34.174 49.7998 34.6271 45.7903C30.3047 45.7903 28.8302 42.135 28.8302 42.135C28.8302 42.135 32.7118 39.3613 37.8275 41.7737C42.5654 44.0086 47.0151 42.136 47.0151 42.135C47.006 41.936 42.7477 40.2379 41.0869 38.598C40.2 37.7224 39.7784 37.2999 39.4047 36.9826C39.2025 36.8112 38.9911 36.6511 38.7714 36.5029C38.6258 36.4009 38.4659 36.2988 38.2623 36.1672C36.4773 35.0038 32.9277 35.0681 32.8106 35.0712H32.7994C31.829 33.8395 31.8972 29.7769 31.9522 28.9289C31.941 28.8758 31.2292 29.2993 31.1376 29.3636C30.2813 29.9758 29.4809 30.6629 28.7457 31.4168C27.9091 32.2669 27.1448 33.1854 26.4608 34.163C24.887 36.3982 23.7708 38.9239 23.1769 41.5941C23.1576 41.6411 22.287 45.4505 22.7167 47.4262Z" fill="url(#paint7_radial_1_1450)"/>
<path d="M55.5945 37.7481C56.488 38.6264 57.2531 39.6269 57.8673 40.7198C57.9945 40.8155 58.1169 40.9177 58.2338 41.0259C63.7813 46.1446 60.8792 53.3911 60.6583 53.9115C65.1651 50.1898 68.0477 44.6864 67.1802 39.0053C64.4136 32.0885 59.7215 29.3006 55.8898 23.2317C55.6953 22.9256 55.5019 22.6195 55.3125 22.2919C55.2056 22.1072 55.119 21.9398 55.0437 21.7816C54.8849 21.4748 54.7622 21.1505 54.6781 20.8152C54.6788 20.7993 54.6735 20.7837 54.6634 20.7715C54.6532 20.7592 54.6389 20.7512 54.6231 20.7489C54.6081 20.7448 54.5923 20.7448 54.5773 20.7489C54.5733 20.7508 54.5695 20.7532 54.5661 20.756C54.56 20.756 54.5539 20.7632 54.5478 20.7652C53.6008 21.2183 47.9882 30.1251 55.5945 37.7481Z" fill="url(#paint8_radial_1_1450)"/>
<path d="M58.2316 41.0206C58.1146 40.9125 57.9923 40.8103 57.865 40.7145C57.8151 40.6767 57.7632 40.639 57.7123 40.6012C56.4059 39.6828 54.0659 38.7725 51.8126 39.1654C60.6143 43.5759 58.2509 58.7648 46.0544 58.1913C44.9685 58.1477 43.8952 57.9413 42.8703 57.579C42.631 57.4892 42.3907 57.3902 42.1514 57.2841C42.013 57.2208 41.8755 57.1575 41.7441 57.0871L41.7604 57.0973C43.4619 58.2607 51.8655 61.1037 60.6479 53.9338C60.6479 53.9338 60.653 53.9206 60.6611 53.9022C60.879 53.3909 63.781 46.1445 58.2316 41.0206Z" fill="url(#paint9_radial_1_1450)"/>
<path d="M35.9765 49.0618C35.9765 49.0618 37.1057 44.8432 44.0644 44.8432C44.8169 44.8432 46.9675 42.7389 47.0072 42.1287C47.0469 41.5184 42.5574 44.0023 37.8195 41.7674C32.7038 39.355 28.8223 42.1287 28.8223 42.1287C28.8223 42.1287 30.2967 45.784 34.6192 45.784C34.166 49.7935 36.2809 54.4684 41.4017 56.9216C41.5158 56.9757 41.6237 57.0359 41.7408 57.089C38.7522 55.5439 36.285 52.6152 35.9765 49.0618Z" fill="url(#paint10_radial_1_1450)"/>
<path d="M69.6056 37.7246C68.5426 35.1602 66.3879 32.3916 64.6966 31.517C66.0733 34.2223 66.8696 36.9358 67.174 38.9604C67.174 38.9604 67.174 38.9747 67.1791 39.0013C64.4125 32.0885 59.7204 29.3006 55.8888 23.2317C55.6943 22.9256 55.5008 22.6195 55.3114 22.2919C55.2045 22.1072 55.118 21.9398 55.0426 21.7816C54.8838 21.4748 54.7612 21.1505 54.6771 20.8152C54.6777 20.7993 54.6725 20.7837 54.6623 20.7715C54.6522 20.7592 54.6378 20.7512 54.6221 20.7489C54.6071 20.7448 54.5913 20.7448 54.5763 20.7489C54.5722 20.7508 54.5684 20.7532 54.5651 20.756C54.5589 20.756 54.5528 20.7632 54.5467 20.7652L54.5569 20.752C48.4097 24.3604 46.3244 31.0354 46.1329 34.3754C46.4181 34.356 46.7021 34.3315 46.9923 34.3315C51.5796 34.3315 55.5752 36.8603 57.7145 40.6065C56.4081 39.688 54.0682 38.7778 51.8148 39.1707C60.6165 43.5812 58.2532 58.7701 46.0566 58.1965C44.9707 58.1529 43.8974 57.9465 42.8725 57.5843C42.6332 57.4945 42.3929 57.3955 42.1536 57.2893C42.0151 57.2261 41.8777 57.1628 41.7463 57.0924L41.7626 57.1026C41.6445 57.0454 41.5254 56.9863 41.4073 56.925C41.5213 56.9791 41.6292 57.0393 41.7463 57.0924C38.7517 55.5443 36.2844 52.6155 35.9759 49.0622C35.9759 49.0622 37.1052 44.8435 44.0639 44.8435C44.8163 44.8435 46.9669 42.7393 47.0066 42.129C46.9974 41.93 42.7391 40.232 41.0784 38.592C40.1915 37.7165 39.7699 37.294 39.3962 36.9766C39.194 36.8053 38.9826 36.6451 38.7629 36.497C38.2053 34.541 38.1818 32.4709 38.6946 30.5027C36.1806 31.6507 34.2255 33.4621 32.8041 35.0653H32.7929C31.8225 33.8335 31.8907 29.771 31.9457 28.923C31.9345 28.8699 31.2227 29.2934 31.1311 29.3577C30.2748 29.9699 29.4744 30.657 28.7392 31.4109C27.9026 32.261 27.1383 33.1795 26.4543 34.157C24.8805 36.3923 23.7643 38.918 23.1704 41.5882C23.1592 41.6413 23.149 41.6964 23.1378 41.7504C23.092 41.9658 22.8843 43.0618 22.8558 43.2965C22.8558 43.3148 22.8558 43.2791 22.8558 43.2965C22.6651 44.4289 22.5431 45.5719 22.4902 46.7192V46.8447C22.4902 60.3885 33.4466 71.3689 46.9608 71.3689C59.0647 71.3689 69.1138 62.5622 71.0821 50.994C71.1228 50.6807 71.1564 50.3643 71.1931 50.048C71.6798 45.8416 71.1391 41.4208 69.6056 37.7246ZM67.1781 38.9839V39.0104V38.9839Z" fill="url(#paint11_linear_1_1450)"/>
<defs>
<linearGradient id="paint0_linear_1_1450" x1="66.3666" y1="28.5883" x2="25.6567" y2="67.7795" gradientUnits="userSpaceOnUse">
<stop offset="0.05" stop-color="#FFF44F"/>
<stop offset="0.11" stop-color="#FFE847"/>
<stop offset="0.22" stop-color="#FFC830"/>
<stop offset="0.37" stop-color="#FF980E"/>
<stop offset="0.4" stop-color="#FF8B16"/>
<stop offset="0.46" stop-color="#FF672A"/>
<stop offset="0.53" stop-color="#FF3647"/>
<stop offset="0.7" stop-color="#E31587"/>
</linearGradient>
<radialGradient id="paint1_radial_1_1450" cx="0" cy="0" r="1" gradientUnits="userSpaceOnUse" gradientTransform="translate(64.4917 26.3644) scale(51.0153 51.1272)">
<stop offset="0.13" stop-color="#FFBD4F"/>
<stop offset="0.19" stop-color="#FFAC31"/>
<stop offset="0.25" stop-color="#FF9D17"/>
<stop offset="0.28" stop-color="#FF980E"/>
<stop offset="0.4" stop-color="#FF563B"/>
<stop offset="0.47" stop-color="#FF3750"/>
<stop offset="0.71" stop-color="#F5156C"/>
<stop offset="0.78" stop-color="#EB0878"/>
<stop offset="0.86" stop-color="#E50080"/>
</radialGradient>
<radialGradient id="paint2_radial_1_1450" cx="0" cy="0" r="1" gradientUnits="userSpaceOnUse" gradientTransform="translate(45.8506 47.266) scale(51.0153 51.1272)">
<stop offset="0.3" stop-color="#960E18"/>
<stop offset="0.35" stop-color="#B11927" stop-opacity="0.74"/>
<stop offset="0.43" stop-color="#DB293D" stop-opacity="0.34"/>
<stop offset="0.5" stop-color="#F5334B" stop-opacity="0.09"/>
<stop offset="0.53" stop-color="#FF3750" stop-opacity="0"/>
</radialGradient>
<radialGradient id="paint3_radial_1_1450" cx="0" cy="0" r="1" gradientUnits="userSpaceOnUse" gradientTransform="translate(52 14.7615) scale(36.9584 37.0394)">
<stop offset="0.13" stop-color="#FFF44F"/>
<stop offset="0.25" stop-color="#FFDC3E"/>
<stop offset="0.51" stop-color="#FF9D12"/>
<stop offset="0.53" stop-color="#FF980E"/>
</radialGradient>
<radialGradient id="paint4_radial_1_1450" cx="0" cy="0" r="1" gradientUnits="userSpaceOnUse" gradientTransform="translate(40.2064 60.6211) scale(24.2903 24.3436)">
<stop offset="0.35" stop-color="#3A8EE6"/>
<stop offset="0.47" stop-color="#5C79F0"/>
<stop offset="0.67" stop-color="#9059FF"/>
<stop offset="1" stop-color="#C139E6"/>
</radialGradient>
<radialGradient id="paint5_radial_1_1450" cx="0" cy="0" r="1" gradientUnits="userSpaceOnUse" gradientTransform="translate(46.5811 41.1897) rotate(-13.9265) scale(12.8708 15.1494)">
<stop offset="0.21" stop-color="#9059FF" stop-opacity="0"/>
<stop offset="0.28" stop-color="#8C4FF3" stop-opacity="0.06"/>
<stop offset="0.75" stop-color="#7716A8" stop-opacity="0.45"/>
<stop offset="0.97" stop-color="#6E008B" stop-opacity="0.6"/>
</radialGradient>
<radialGradient id="paint6_radial_1_1450" cx="0" cy="0" r="1" gradientUnits="userSpaceOnUse" gradientTransform="translate(45.2058 24.2726) scale(17.4752 17.5135)">
<stop stop-color="#FFE226"/>
<stop offset="0.12" stop-color="#FFDB27"/>
<stop offset="0.3" stop-color="#FFC82A"/>
<stop offset="0.5" stop-color="#FFA930"/>
<stop offset="0.73" stop-color="#FF7E37"/>
<stop offset="0.79" stop-color="#FF7139"/>
</radialGradient>
<radialGradient id="paint7_radial_1_1450" cx="0" cy="0" r="1" gradientUnits="userSpaceOnUse" gradientTransform="translate(58.9398 13.1645) scale(74.5572 74.7208)">
<stop offset="0.11" stop-color="#FFF44F"/>
<stop offset="0.46" stop-color="#FF980E"/>
<stop offset="0.62" stop-color="#FF5634"/>
<stop offset="0.72" stop-color="#FF3647"/>
<stop offset="0.9" stop-color="#E31587"/>
</radialGradient>
<radialGradient id="paint8_radial_1_1450" cx="0" cy="0" r="1" gradientUnits="userSpaceOnUse" gradientTransform="translate(51.7337 21.3284) rotate(84.2447) scale(54.4628 35.7055)">
<stop stop-color="#FFF44F"/>
<stop offset="0.06" stop-color="#FFE847"/>
<stop offset="0.17" stop-color="#FFC830"/>
<stop offset="0.3" stop-color="#FF980E"/>
<stop offset="0.36" stop-color="#FF8B16"/>
<stop offset="0.45" stop-color="#FF672A"/>
<stop offset="0.57" stop-color="#FF3647"/>
<stop offset="0.74" stop-color="#E31587"/>
</radialGradient>
<radialGradient id="paint9_radial_1_1450" cx="0" cy="0" r="1" gradientUnits="userSpaceOnUse" gradientTransform="translate(44.7928 30.7587) scale(46.5461 46.6483)">
<stop offset="0.14" stop-color="#FFF44F"/>
<stop offset="0.48" stop-color="#FF980E"/>
<stop offset="0.59" stop-color="#FF5634"/>
<stop offset="0.66" stop-color="#FF3647"/>
<stop offset="0.9" stop-color="#E31587"/>
</radialGradient>
<radialGradient id="paint10_radial_1_1450" cx="0" cy="0" r="1" gradientUnits="userSpaceOnUse" gradientTransform="translate(57.0797 33.4893) scale(50.945 51.0568)">
<stop offset="0.09" stop-color="#FFF44F"/>
<stop offset="0.23" stop-color="#FFE141"/>
<stop offset="0.51" stop-color="#FFAF1E"/>
<stop offset="0.63" stop-color="#FF980E"/>
</radialGradient>
<linearGradient id="paint11_linear_1_1450" x1="65.8778" y1="28.378" x2="31.2366" y2="62.9444" gradientUnits="userSpaceOnUse">
<stop offset="0.17" stop-color="#FFF44F" stop-opacity="0.8"/>
<stop offset="0.27" stop-color="#FFF44F" stop-opacity="0.63"/>
<stop offset="0.49" stop-color="#FFF44F" stop-opacity="0.22"/>
<stop offset="0.6" stop-color="#FFF44F" stop-opacity="0"/>
</linearGradient>
</defs>
</svg>
