<svg width="100" height="100" viewBox="0 0 100 100" fill="none" xmlns="http://www.w3.org/2000/svg">
<rect x="7.57444" y="7.57395" width="91.75" height="91.75" rx="6.08405" fill="#0A102F" stroke="#0A102F" stroke-width="1.35201"/>
<rect x="0.676005" y="0.676005" width="91.75" height="91.75" rx="6.08405" fill="#FCFAFF" stroke="#0A102F" stroke-width="1.35201"/>
<path d="M71.3697 47.4726C71.3697 45.4633 71.2033 43.9969 70.8432 42.4763H47.4297V51.5457H61.1729C60.8959 53.7996 59.3997 57.1939 56.0746 59.4747L56.028 59.7783L63.4309 65.3986L63.9438 65.4487C68.6541 61.1855 71.3697 54.9128 71.3697 47.4726Z" fill="#4285F4"/>
<path d="M47.4298 71.3689C54.1628 71.3689 59.8152 69.1965 63.9439 65.4493L56.0747 59.4751C53.9689 60.9143 51.1426 61.919 47.4298 61.919C40.8353 61.919 35.2383 57.6559 33.2431 51.7634L32.9507 51.7878L25.253 57.626L25.1523 57.9002C29.2531 65.8836 37.6764 71.3689 47.4298 71.3689Z" fill="#34A853"/>
<path d="M33.2429 51.7633C32.7165 50.2427 32.4118 48.6133 32.4118 46.9298C32.4118 45.2462 32.7165 43.617 33.2152 42.0964L33.2013 41.7725L25.4071 35.8406L25.1521 35.9594C23.462 39.2723 22.4922 42.9925 22.4922 46.9298C22.4922 50.8672 23.462 54.5872 25.1521 57.9L33.2429 51.7633Z" fill="#FBBC05"/>
<path d="M47.4299 31.9408C52.1126 31.9408 55.2713 33.923 57.0724 35.5796L64.1103 28.8453C59.7879 24.9079 54.163 22.4912 47.4299 22.4912C37.6765 22.4912 29.2531 27.9763 25.1523 35.9596L33.2155 42.0965C35.2383 36.2041 40.8354 31.9408 47.4299 31.9408Z" fill="#EB4335"/>
</svg>
