<svg width="100" height="100" viewBox="0 0 100 100" fill="none" xmlns="http://www.w3.org/2000/svg">
<rect x="7.57444" y="7.57395" width="91.75" height="91.75" rx="6.08405" fill="#0A102F" stroke="#0A102F" stroke-width="1.35201"/>
<rect x="0.676005" y="0.676005" width="91.75" height="91.75" rx="6.08405" fill="#FCFAFF" stroke="#0A102F" stroke-width="1.35201"/>
<path d="M46.929 22.4912C33.4495 22.4912 22.4902 33.4505 22.4902 46.93C22.4902 60.4095 33.4495 71.3687 46.929 71.3687C60.4085 71.3687 71.3677 60.4095 71.3677 46.93C71.3677 33.4505 60.4085 22.4912 46.929 22.4912Z" fill="#FDDD4C"/>
<path d="M36.2277 53.302C35.6933 52.4929 37.0373 51.2685 36.4907 50.2404C36.1755 49.6475 35.6604 49.278 35.0418 49.2005C34.4481 49.126 33.8366 49.3433 33.4467 49.7681C32.8312 50.4378 32.7355 51.3495 32.8546 51.6721C32.8982 51.7904 32.9666 51.8227 33.0156 51.8296C33.3509 51.8737 33.5395 51.0133 33.6553 50.8341C33.9752 50.3402 34.7019 50.1908 35.2037 50.5154C36.1552 51.1308 35.3301 52.1255 35.4013 52.9655C35.4706 53.7835 35.9802 54.1123 36.4378 54.1468C36.8829 54.1637 37.1941 53.9164 37.2727 53.7359C37.4611 53.305 36.6674 53.9676 36.2277 53.302Z" fill="black"/>
<path d="M56.1084 45.8755C55.8588 45.841 55.586 45.8418 55.3022 45.8755C55.0867 45.6036 54.8937 45.1635 54.7848 44.6497C54.5911 43.7357 54.6113 43.0736 55.1521 42.9876C55.6929 42.9015 55.9543 43.4545 56.148 44.3685C56.278 44.983 56.2531 45.5475 56.1084 45.8755Z" fill="black"/>
<path d="M50.1853 46.4193C50.2067 46.6263 50.2143 46.8357 50.2082 47.0285C50.7314 47.0592 51.1021 47.3078 51.2008 47.4655C51.2513 47.5469 51.2311 47.5999 51.2148 47.6245C51.1606 47.7087 51.0445 47.6957 50.8014 47.6684C50.589 47.6446 50.3602 47.6236 50.1225 47.6345C49.9931 48.0313 49.6096 48.0684 49.3401 47.775C49.1518 47.8324 48.7821 48.0685 48.6719 47.8119C48.6709 47.6846 48.8041 47.4995 49.0452 47.336C48.8806 47.022 48.7703 46.6859 48.7051 46.3378C48.3633 46.3994 48.0558 46.4952 47.8147 46.5702C47.7015 46.6055 47.2538 46.8077 47.2013 46.5798C47.1663 46.4223 47.4114 46.1627 47.6705 45.9753C47.96 45.7697 48.2812 45.6236 48.6142 45.5393C48.607 45.0436 48.7335 44.6977 49.0937 44.6404C49.5403 44.5694 49.8171 44.9132 50.0086 45.5499C50.5483 45.6999 51.0874 46.0717 51.3253 46.4561C51.4179 46.6051 51.4358 46.7203 51.3759 46.781C51.2263 46.9361 50.3976 46.4866 50.1853 46.4193Z" fill="black"/>
<path d="M53.7343 48.6475C54.0767 48.8134 54.4533 48.7481 54.5762 48.5015C54.6992 48.255 54.521 47.9209 54.1786 47.755C53.8363 47.5891 53.4597 47.6544 53.3367 47.9009C53.2138 48.1475 53.392 48.4816 53.7343 48.6475Z" fill="black"/>
<path d="M55.4197 47.4232C55.4259 47.046 55.657 46.7449 55.9348 46.7495C56.2125 46.7549 56.4328 47.0637 56.4265 47.44C56.4203 47.8164 56.1892 48.1175 55.9114 48.1129C55.6336 48.1083 55.4134 47.7995 55.4197 47.4232Z" fill="black"/>
<path fill-rule="evenodd" clip-rule="evenodd" d="M62.9526 52.0416C62.958 52.0608 62.9503 52.0337 62.9526 52.0416C63.5105 52.0416 64.3866 52.6745 64.3866 54.2037C64.3866 55.7253 63.747 57.4488 63.5961 57.8313C61.2921 63.2816 55.7932 66.3154 49.2431 66.1234C43.1365 65.9445 37.9286 62.7639 35.6495 57.5786C34.2715 57.5802 32.8506 56.9818 31.7706 56.0371C30.6322 55.0417 29.9304 53.7536 29.7934 52.4103C29.6868 51.3642 29.8168 50.391 30.149 49.5423L28.8691 48.4716C23.0114 43.5897 41.332 23.4893 47.1912 28.534C47.2208 28.5593 49.1847 30.4611 49.1894 30.4657C52.0145 29.2816 59.5842 27.0272 59.5927 32.2753C59.5958 34.018 58.4707 36.0503 56.6678 37.8945C58.7513 39.8018 58.2019 42.5111 58.5337 44.9968L59.2573 45.195C60.6369 45.5767 61.6181 46.086 62.0982 46.5837C62.5783 47.0806 62.8164 47.5622 62.9028 48.1267C62.9837 48.5822 62.9728 49.3864 62.3643 50.2858C62.5834 50.866 62.7834 51.4444 62.9526 52.0416ZM35.546 56.1646C35.7507 56.1692 35.9537 56.1562 36.1529 56.1224C38.2935 55.7621 38.8538 53.4671 38.5013 51.2136C38.1029 48.669 36.3591 47.7719 35.1756 47.7081C34.8465 47.6912 34.5407 47.7204 34.2886 47.7703C32.176 48.1905 30.9832 49.9647 31.2182 52.2689C31.4306 54.3543 33.5673 56.1124 35.546 56.1646ZM30.7614 48.3956C31.4703 47.3794 32.6289 46.6444 33.9439 46.3917C35.6176 41.9568 38.4126 37.8707 42.1117 35.0587C44.8569 32.7983 47.8176 31.1769 47.8176 31.1769C47.8176 31.1769 46.2232 29.352 45.7416 29.2176C42.7793 28.428 36.3817 32.783 32.2966 38.5373C30.6439 40.8654 28.2777 44.9884 29.4091 47.109C29.5483 47.3717 30.3381 48.0469 30.7614 48.3956ZM54.7778 55.1461C54.7824 55.1938 54.7529 55.2429 54.7101 55.2606C54.7101 55.2606 52.3298 56.3535 48.549 55.1991C48.685 56.3325 50.0593 56.7619 51.0195 56.9173C55.7045 57.713 60.0845 55.0686 61.0703 54.4026C61.2396 54.2883 61.0683 54.5823 61.0377 54.6254C59.8308 56.1623 56.5861 57.9419 52.3648 57.9412C50.5238 57.9404 48.6836 57.3006 48.0082 56.3167C46.9601 54.7905 47.9561 52.5623 49.7029 52.7943C52.6557 53.1234 55.6828 52.8761 58.4162 51.6238C60.7996 50.5316 61.6998 49.3303 61.5644 48.3572C61.3545 46.849 59.1185 46.6131 57.9882 46.2465C57.4965 46.086 57.2537 45.9577 57.1985 45.0445C57.1743 44.6458 57.1043 43.2548 57.0786 42.6796C57.0335 41.6726 56.9106 40.2955 56.0453 39.7271C55.8197 39.5789 55.5691 39.5074 55.3053 39.4936C55.095 39.4836 54.9703 39.5125 54.9032 39.528C54.8882 39.5315 54.876 39.5343 54.8665 39.5358C54.3993 39.6143 54.113 39.8506 53.7753 40.1294C53.7559 40.1454 53.7363 40.1616 53.7164 40.178C52.6372 41.0658 51.726 41.211 50.7121 41.168C50.3964 41.1548 50.0709 41.1233 49.7276 41.09C49.4119 41.0594 49.081 41.0273 48.7287 41.0067L48.2984 40.9821C46.6006 40.8961 44.7798 42.3431 44.4772 44.3985C44.139 46.6927 45.4213 48.0979 46.2553 49.0118C46.4613 49.2376 46.64 49.4335 46.7601 49.6053C46.8372 49.709 46.9266 49.8549 46.9266 49.9939C46.9266 50.1598 46.8177 50.2912 46.7111 50.4033C44.979 52.1614 44.425 54.9549 45.0779 57.2829C45.1596 57.5732 45.263 57.8513 45.3852 58.117C46.9165 61.6494 51.6677 63.2946 56.3083 61.7984C59.5607 60.7497 62.4343 58.2157 63.0195 54.7199C63.1588 53.8089 62.9541 53.4571 62.6756 53.2874C62.3807 53.1084 62.0274 53.1707 62.0274 53.1707C62.0274 53.1707 61.8663 52.0823 61.4104 51.093C60.0572 52.1468 58.3158 52.8872 56.9899 53.2628C54.8656 53.8644 52.5709 54.0986 50.3757 53.8149C49.4854 53.6999 48.8871 53.6226 48.6307 54.4449C51.5587 55.5033 54.6579 55.0501 54.6579 55.0501C54.7179 55.044 54.7715 55.087 54.7778 55.1461ZM46.3298 34.6071C44.7285 35.4159 42.9404 36.856 41.4884 38.5128C41.4371 38.5719 41.5133 38.6533 41.5764 38.608C42.8307 37.7071 44.5503 36.8699 46.8029 36.3276C49.3263 35.7201 51.7556 35.9751 53.2394 36.3107C53.3141 36.3276 53.3608 36.2009 53.2947 36.164C52.3143 35.621 50.8094 35.2523 49.7418 35.2446C49.6897 35.2439 49.6601 35.1839 49.6913 35.1425C49.8757 34.8975 50.1286 34.6555 50.3597 34.4804C50.411 34.4405 50.3799 34.3583 50.3145 34.3621C48.9865 34.4426 45.9532 35.8257 45.9641 35.7754C46.0419 35.4067 46.287 34.9197 46.4139 34.6924C46.4442 34.6386 46.3851 34.5795 46.3298 34.6071Z" fill="black"/>
</svg>
