<svg width="100" height="100" viewBox="0 0 100 100" fill="none" xmlns="http://www.w3.org/2000/svg">
<rect x="7.57444" y="7.57395" width="91.75" height="91.75" rx="6.08405" fill="#0A102F" stroke="#0A102F" stroke-width="1.35201"/>
<rect x="0.676005" y="0.676005" width="91.75" height="91.75" rx="6.08405" fill="#FCFAFF" stroke="#0A102F" stroke-width="1.35201"/>
<path fill-rule="evenodd" clip-rule="evenodd" d="M41.0206 39.3181C40.9947 39.3181 40.9446 39.3181 40.9187 39.3181C40.4888 39.2657 40.1349 38.8717 40.1349 38.4253C40.109 38.0051 39.881 28.1834 45.4215 25.9514C46.8131 25.3998 48.1046 25.5048 49.1924 26.319C50.5322 27.2907 51.4938 29.2339 52.0757 32.0701C52.4797 34.066 52.5557 35.7991 52.5557 35.878C52.5816 36.2981 52.2536 36.6133 51.8219 36.5345C51.392 36.4819 51.0381 36.0881 51.0381 35.6678C50.9621 33.8821 50.3803 28.9714 48.4586 27.5532C47.8508 27.1068 47.0911 27.0543 46.1812 27.4219C41.4246 29.3389 41.6525 38.5566 41.6525 38.6616C41.6525 39.0293 41.4005 39.3181 41.0206 39.3181Z" fill="#595961"/>
<path opacity="0.46" fill-rule="evenodd" clip-rule="evenodd" d="M48.9163 26.3711C47.9045 25.6358 46.7166 25.5308 45.4251 26.0297C43.1737 26.9488 41.5801 29.3649 40.7963 33.0415C40.2144 35.7462 40.2904 38.1886 40.2904 38.2936C40.2904 38.4248 40.3405 38.5563 40.4423 38.6613C40.5425 38.7662 40.6443 38.8451 40.7704 38.8451C40.7963 38.8451 40.8222 38.8451 40.8463 38.8451C41.0743 38.8451 41.2521 38.6613 41.2521 38.4248C41.2521 38.3199 41.0242 28.9446 45.9069 26.9751C46.8928 26.5813 47.7526 26.6337 48.4622 27.1589C50.5099 28.6558 51.1176 33.7243 51.1936 35.5362C51.1936 35.7988 51.4215 36.0615 51.6995 36.0876C51.9533 36.1139 52.1553 35.9301 52.1553 35.6675C52.1294 35.3524 51.8514 28.5245 48.9163 26.3711Z" fill="#B2B2C2"/>
<path opacity="0.46" fill-rule="evenodd" clip-rule="evenodd" d="M40.7947 38.5301C40.7688 38.5301 40.7688 38.5301 40.7447 38.5301C40.5927 38.5039 40.4649 38.3463 40.4408 38.1887C40.4408 38.0836 40.3648 35.6939 40.9467 32.989C41.7046 29.3913 43.2999 27.0015 45.4995 26.1086C46.7392 25.6096 47.8529 25.7148 48.8146 26.3976C51.6479 28.4721 51.9259 35.195 51.9259 35.4838C51.9259 35.6414 51.7998 35.7464 51.6479 35.7202C51.4959 35.6939 51.3699 35.5627 51.344 35.3788C51.344 35.3 51.066 28.7085 48.5107 26.8177C47.751 26.2663 46.8152 26.1874 45.7534 26.6075C40.7947 28.6822 41.0227 38.1887 41.0227 38.2937C41.0468 38.425 40.9467 38.5301 40.7947 38.5301Z" fill="#B2B2C2"/>
<path opacity="0.62" fill-rule="evenodd" clip-rule="evenodd" d="M42.843 31.0196C43.045 30.6258 43.2469 30.2319 43.4248 29.8118C43.3488 29.943 42.8429 31.3086 41.2994 31.0985C41.2735 31.0985 42.2093 31.3873 42.843 31.0196Z" fill="#595961"/>
<path opacity="0.62" fill-rule="evenodd" clip-rule="evenodd" d="M42.2872 32.6998C42.4392 32.2796 42.5911 31.8332 42.6929 31.4131C42.6429 31.5706 42.389 32.9887 40.7695 32.9887C40.7695 32.9887 41.7054 33.1725 42.2872 32.6998Z" fill="#595961"/>
<path opacity="0.62" fill-rule="evenodd" clip-rule="evenodd" d="M51.1664 29.3128C50.9644 28.84 50.7364 28.3936 50.5085 27.9209C50.5845 28.0785 51.3442 29.5753 50.4844 30.6519C50.4844 30.6519 51.1422 30.1269 51.1664 29.3128Z" fill="#595961"/>
<path opacity="0.62" fill-rule="evenodd" clip-rule="evenodd" d="M49.7742 26.9492C49.3684 26.6078 48.9643 26.2927 48.5586 26.0039C48.7105 26.1352 50.052 27.1068 49.9761 28.5776C49.9502 28.5776 50.1782 27.7109 49.7742 26.9492Z" fill="#595961"/>
<path opacity="0.62" fill-rule="evenodd" clip-rule="evenodd" d="M43.5799 29.5747C43.8838 29.2596 44.1358 28.9182 44.4138 28.5505C44.3136 28.6555 43.4781 29.7323 41.9863 29.3383C41.9863 29.3383 42.8461 29.8112 43.5799 29.5747Z" fill="#595961"/>
<path opacity="0.62" fill-rule="evenodd" clip-rule="evenodd" d="M44.5135 28.3671C44.8674 28.1045 45.1955 27.8418 45.5252 27.553C45.3992 27.6318 44.3616 28.4983 42.9199 27.8681C42.9199 27.8681 43.7538 28.472 44.5135 28.3671Z" fill="#595961"/>
<path opacity="0.62" fill-rule="evenodd" clip-rule="evenodd" d="M45.8778 27.5C46.3077 27.3688 46.7135 27.2112 47.1175 27.0537C46.9656 27.1061 45.6757 27.5787 44.4102 26.5808C44.4361 26.5808 45.0939 27.3688 45.8778 27.5Z" fill="#595961"/>
<path opacity="0.62" fill-rule="evenodd" clip-rule="evenodd" d="M47.1184 27.028C47.4724 27.0806 47.8263 27.1069 48.1803 27.1332C48.0542 27.1069 46.9405 27.028 46.3086 25.9775C46.3086 25.9775 46.5625 26.6866 47.1184 27.028Z" fill="#595961"/>
<path opacity="0.62" fill-rule="evenodd" clip-rule="evenodd" d="M48.5872 27.6053C48.8393 27.8943 49.1189 28.1832 49.4211 28.4457C49.3209 28.3407 48.4612 27.4741 48.6632 26.3975C48.6373 26.3975 48.3593 27.0014 48.5872 27.6053Z" fill="#595961"/>
<path opacity="0.74" fill-rule="evenodd" clip-rule="evenodd" d="M51.6479 35.3524C51.6479 35.0634 51.3699 28.4194 48.6126 26.3974C48.0808 26.0034 47.499 25.8196 46.8912 25.8196C46.4354 25.8196 45.9554 25.9246 45.4495 26.1347C43.2481 27.0013 41.7046 29.3386 40.9467 32.91C40.3648 35.5886 40.4408 37.9784 40.4408 38.0834C40.4408 38.1623 40.5167 38.241 40.5927 38.241H40.6168C40.6928 38.241 40.7447 38.1886 40.7447 38.1097C40.7447 38.0047 40.4908 28.4194 45.5755 26.3711C46.6892 25.9246 47.6509 26.0034 48.4606 26.6074C51.0902 28.5245 51.3699 35.2211 51.3699 35.2998C51.3699 35.3787 51.4459 35.4573 51.5218 35.4573C51.5218 35.4573 51.5218 35.4573 51.546 35.4573C51.5978 35.4836 51.6479 35.4311 51.6479 35.3524Z" fill="url(#paint0_linear_1_1438)"/>
<path fill-rule="evenodd" clip-rule="evenodd" d="M52.0789 32.0701C51.4971 29.2339 50.5354 27.3168 49.1956 26.3189C48.4618 25.7938 47.6762 25.5574 46.8164 25.61C47.5001 25.6624 48.132 25.8988 48.7139 26.3189C50.0554 27.2907 51.0172 29.2339 51.599 32.0701C52.003 34.066 52.0789 35.7991 52.0789 35.878C52.0789 36.1931 51.927 36.4295 51.6732 36.5082C51.725 36.5345 51.7751 36.5345 51.801 36.5345C52.2309 36.587 52.559 36.2981 52.5348 35.878C52.559 35.7991 52.4829 34.0923 52.0789 32.0701Z" fill="url(#paint1_linear_1_1438)"/>
<path fill-rule="evenodd" clip-rule="evenodd" d="M45.7041 27.4217C40.9474 29.3387 41.1752 38.5563 41.1752 38.6613C41.1752 38.9764 41.0233 39.2129 40.7695 39.2916C40.8213 39.3178 40.8456 39.3178 40.8974 39.3178C40.9215 39.3178 40.9733 39.3178 40.9975 39.3178C41.3773 39.3178 41.6293 39.029 41.6293 38.6613C41.6293 38.5563 41.4032 29.365 46.1582 27.448C46.4879 27.3167 46.7917 27.2379 47.0697 27.2116C46.664 27.1329 46.21 27.2116 45.7041 27.4217Z" fill="url(#paint2_linear_1_1438)"/>
<path fill-rule="evenodd" clip-rule="evenodd" d="M52.9098 29.706L31.4574 36.5863C31.4574 36.5863 30.5475 36.849 30.3196 37.1378C30.0917 37.4266 30.0416 38.2407 30.0416 38.2407L26.7266 64.7644L51.6201 69.5964L53.5435 29.6797C53.2655 29.6271 52.9858 29.6797 52.9098 29.706Z" fill="url(#paint3_linear_1_1438)"/>
<path fill-rule="evenodd" clip-rule="evenodd" d="M60.3254 33.1203C60.3254 33.1203 60.2995 32.9102 60.1734 32.8315C60.0716 32.7526 59.9455 32.7526 59.9455 32.7526L56.4285 32.4901L53.849 29.8377C53.7471 29.7589 53.6453 29.7065 53.5193 29.6802L51.5977 69.5969L65.0803 66.5768L60.3254 33.1203Z" fill="url(#paint4_linear_1_1438)"/>
<path fill-rule="evenodd" clip-rule="evenodd" d="M44.0562 51.8702C43.6763 51.3449 43.2222 50.8723 42.7664 50.452C42.3106 50.0319 41.8306 49.6905 41.3489 49.3754C41.0209 49.1653 40.717 48.9551 40.4632 48.745C40.2111 48.535 40.0091 48.3249 39.8572 48.1411C39.7052 47.9309 39.5792 47.7471 39.5032 47.5371C39.4272 47.327 39.4013 47.1169 39.4013 46.9067C39.4013 46.6179 39.4773 46.3291 39.5792 46.0926C39.6793 45.8564 39.8571 45.6463 40.0332 45.4624C40.237 45.2786 40.4632 45.1473 40.7429 45.0423C41.0209 44.9372 41.3489 44.8848 41.7028 44.8585C42.0826 44.8322 42.4625 44.8585 42.8165 44.8848C43.1704 44.9109 43.5002 44.9898 43.8282 45.0684C44.1321 45.1473 44.4359 45.2523 44.688 45.3574C44.9418 45.4624 45.1939 45.5674 45.3717 45.6726L47.0414 40.5254C46.7893 40.3941 46.4854 40.2627 46.1557 40.184C45.8017 40.0789 45.4218 40.0002 44.9919 39.9476C44.562 39.8952 44.1062 39.8689 43.6262 39.8689C43.1462 39.8689 42.6404 39.8952 42.1086 39.9739C40.9708 40.1314 39.9573 40.4465 39.0474 40.9192C38.1876 41.3658 37.4279 41.9434 36.796 42.6525C36.1882 43.3353 35.7082 44.1231 35.3542 45.016C35.0245 45.8827 34.8225 46.8543 34.7724 47.9046C34.7465 48.535 34.7966 49.1127 34.9485 49.6379C35.0746 50.1632 35.2783 50.6621 35.5563 51.1348C35.8083 51.6075 36.1381 52.0277 36.492 52.4216C36.846 52.8155 37.2759 53.1832 37.7058 53.5246C38.0598 53.7872 38.3637 54.0497 38.6175 54.2861C38.8695 54.5225 39.0733 54.7588 39.2235 55.0215C39.3754 55.2578 39.4773 55.4942 39.5532 55.7567C39.6292 55.9931 39.6551 56.2557 39.6292 56.5184C39.6292 56.7809 39.5533 57.0435 39.4514 57.2536C39.3513 57.4637 39.2235 57.6738 39.0215 57.8314C38.8454 57.989 38.6175 58.0939 38.3637 58.1465C38.1116 58.1989 37.8078 58.2252 37.478 58.1728C37.0999 58.1202 36.7199 58.0153 36.366 57.8575C36.0121 57.7263 35.6565 57.5424 35.3284 57.3586C35.0004 57.1749 34.6965 56.9648 34.4427 56.7809C34.1647 56.5971 33.9368 56.3869 33.7607 56.2294L32.6211 60.1424C32.7989 60.4049 33.0511 60.6413 33.329 60.8776C33.6087 61.114 33.9368 61.3502 34.3167 61.5867C34.6965 61.7968 35.1005 62.0067 35.5304 62.1906C35.9604 62.3744 36.442 62.532 36.922 62.6634H36.9479H36.972H36.998H37.0239C38.0598 62.8997 39.0474 62.9523 39.9832 62.821C40.9449 62.6896 41.8306 62.3482 42.5885 61.8231C43.3724 61.2715 44.006 60.5362 44.486 59.5645C44.9677 58.5929 45.2457 57.4111 45.2957 56.0718C45.3216 55.2315 45.2198 54.4963 44.9919 53.8134C44.764 53.0257 44.436 52.4216 44.0562 51.8702Z" fill="url(#paint5_linear_1_1438)"/>
<path opacity="0.226763" fill-rule="evenodd" clip-rule="evenodd" d="M32.7853 60.3566C32.7266 60.287 32.6713 60.2159 32.6212 60.1429L33.7608 56.2299C33.7763 56.2445 33.7936 56.2596 33.8109 56.2751C33.9801 56.4263 34.1907 56.6146 34.4428 56.7814C34.6966 56.9653 35.0005 57.1754 35.3285 57.3592C35.6566 57.5429 36.0122 57.7268 36.3661 57.8582C36.7201 58.0158 37.1 58.1207 37.4781 58.1733C37.8079 58.2257 38.1117 58.1996 38.3638 58.147C38.6176 58.0944 38.8455 57.9895 39.0216 57.8319C39.2236 57.6744 39.3514 57.4642 39.4516 57.2541C39.5534 57.044 39.6293 56.7814 39.6293 56.5189C39.6552 56.2562 39.6293 55.9936 39.5534 55.7572C39.4774 55.4947 39.3756 55.2583 39.2236 55.022C39.0803 54.7724 38.8904 54.5466 38.6538 54.3218C38.7781 54.4622 38.8835 54.6064 38.9716 54.7593C39.1235 54.9957 39.2236 55.232 39.2996 55.4947C39.3756 55.7309 39.4015 55.9936 39.3756 56.2562C39.3756 56.5189 39.2996 56.7814 39.1995 56.9915C39.0976 57.2017 38.9715 57.4116 38.7695 57.5692C38.5917 57.7268 38.3638 57.8319 38.1118 57.8843C37.8579 57.9369 37.5541 57.9632 37.226 57.9106C36.8462 57.8582 36.4663 57.753 36.1124 57.5955C35.7584 57.4642 35.4045 57.2804 35.0747 57.0965C34.7466 56.9127 34.4428 56.7027 34.1907 56.5189C33.9369 56.352 33.7263 56.1637 33.5571 56.0125C33.5398 55.9971 33.5242 55.9819 33.5069 55.9673L32.3691 59.8802C32.4814 60.0473 32.6247 60.2039 32.7853 60.3566ZM36.5129 52.4459C36.418 52.352 36.3265 52.2566 36.2384 52.1595C35.8845 51.7655 35.5564 51.3454 35.3026 50.8728C35.0246 50.3999 34.8226 49.901 34.6966 49.3759C34.5446 48.8507 34.4928 48.2728 34.5187 47.6426C34.5688 46.5921 34.7726 45.6205 35.1006 44.7538C35.4545 43.8611 35.9363 43.0733 36.5423 42.3905C37.176 41.6814 37.9338 41.1036 38.7937 40.6572C39.7053 40.1845 40.7171 39.8694 41.8549 39.7118C42.3866 39.633 42.8926 39.6067 43.3726 39.6067C43.8543 39.6067 44.3101 39.633 44.74 39.6856C45.1699 39.7381 45.5498 39.8168 45.9037 39.922C46.2317 40.0007 46.5356 40.1319 46.7894 40.2632L46.7497 40.3861C46.5667 40.3065 46.3664 40.2349 46.1558 40.1845C45.8018 40.0795 45.422 40.0007 44.9921 39.9481C44.5621 39.8957 44.1063 39.8694 43.6263 39.8694C43.1463 39.8694 42.6405 39.8957 42.1087 39.9744C40.9709 40.1319 39.9574 40.4471 39.0475 40.9199C38.1877 41.3663 37.428 41.9439 36.7961 42.653C36.1883 43.3358 35.7083 44.1236 35.3544 45.0165C35.0246 45.8832 34.8226 46.8548 34.7726 47.9051C34.7467 48.5355 34.7967 49.1132 34.9486 49.6384C35.0747 50.1637 35.2784 50.6626 35.5564 51.1353C35.8085 51.608 36.1382 52.0282 36.4922 52.4221C36.4991 52.43 36.506 52.438 36.5129 52.4459ZM39.9487 48.2491C40.0869 48.4053 40.2596 48.5754 40.4633 48.7455C40.7171 48.9556 41.021 49.1658 41.349 49.3759C41.8308 49.691 42.3107 50.0324 42.7665 50.4525C42.8995 50.5748 43.0307 50.7015 43.1619 50.8327C42.9513 50.6063 42.7319 50.392 42.5127 50.19C42.0586 49.7697 41.577 49.4283 41.097 49.1132C40.7672 48.9031 40.4633 48.6931 40.2112 48.483C40.1163 48.4046 40.0299 48.3263 39.9487 48.2491Z" fill="black"/>
<path opacity="0.41" fill-rule="evenodd" clip-rule="evenodd" d="M57.2876 62.1651L56.4278 32.4902L56.2759 32.3326L56.6817 61.7449C56.6817 61.7449 53.1146 67.3647 52.5828 67.2071C51.7989 66.9709 54.1263 30.1266 54.1263 30.1266L53.8725 29.8641C53.7724 29.7852 53.6446 29.7328 53.5445 29.7065L51.647 69.0717L51.6211 69.6232L52.2789 68.7566L57.2876 62.1651Z" fill="url(#paint6_linear_1_1438)"/>
<path fill-rule="evenodd" clip-rule="evenodd" d="M47.5975 31.4134C47.2953 32.6476 46.9156 33.8031 46.6376 34.5122C46.4597 34.9324 46.6618 35.3262 47.0416 35.3788C47.4473 35.4314 47.9014 35.1424 48.0534 34.7223C48.0793 34.6434 48.7612 32.9366 49.1928 30.9145V30.8882L47.5975 31.4134Z" fill="url(#paint7_linear_1_1438)"/>
<path fill-rule="evenodd" clip-rule="evenodd" d="M36.1874 35.0897C35.8335 35.8775 35.4795 36.5603 35.2257 37.033C34.9995 37.4269 35.1256 37.847 35.5054 37.952C35.8835 38.0835 36.3894 37.847 36.6173 37.4531C36.6432 37.4007 37.377 36.1139 38.0348 34.4856L36.1874 35.0897Z" fill="url(#paint8_linear_1_1438)"/>
<path opacity="0.32" fill-rule="evenodd" clip-rule="evenodd" d="M51.6211 69.5965L57.2876 62.1646L65.1314 66.5765L51.6211 69.5965Z" fill="url(#paint9_linear_1_1438)"/>
<path opacity="0.19" fill-rule="evenodd" clip-rule="evenodd" d="M51.6211 69.5965L57.2376 62.1646L65.1314 66.5765L51.6211 69.5965Z" fill="url(#paint10_linear_1_1438)"/>
<path opacity="0.19" fill-rule="evenodd" clip-rule="evenodd" d="M51.6211 69.5965L57.2376 62.1646L65.1314 66.5765L51.6211 69.5965Z" fill="url(#paint11_linear_1_1438)"/>
<path opacity="0.6" fill-rule="evenodd" clip-rule="evenodd" d="M46.1059 48.798C49.0411 52.921 51.0144 57.3853 52.0003 61.7184L53.5439 29.6538C53.2659 29.6014 52.9862 29.6538 52.9103 29.6801L31.4578 36.5868C31.4578 36.5868 31.2558 36.6392 31.002 36.7443C36.4423 38.6876 41.8811 42.8631 46.1059 48.798Z" fill="url(#paint12_linear_1_1438)"/>
<path fill-rule="evenodd" clip-rule="evenodd" d="M60.1968 32.8574C60.3245 32.9626 60.3246 33.1201 60.3246 33.1201L65.0294 66.5502L57.2875 62.1384L56.4277 32.4636L59.8947 32.7262C59.9188 32.7524 60.0707 32.7524 60.1968 32.8574Z" fill="url(#paint13_linear_1_1438)"/>
<path fill-rule="evenodd" clip-rule="evenodd" d="M59.6423 32.9365C59.6423 32.9365 59.7943 32.9365 59.9203 33.0677C60.0463 33.1729 60.0722 33.3304 60.0722 33.3304L64.7028 66.393L65.0568 66.6031L60.3502 33.1466C60.3502 33.1466 60.326 32.989 60.2241 32.884C60.0981 32.7789 59.9203 32.7789 59.9203 32.7789L56.4551 32.5164L59.6423 32.9365Z" fill="url(#paint14_linear_1_1438)"/>
<path fill-rule="evenodd" clip-rule="evenodd" d="M26.7266 64.7639L51.6201 69.596L52.8356 42.2319L29.8222 42.8861L26.7266 64.7639Z" fill="url(#paint15_linear_1_1438)"/>
<path opacity="0.3" fill-rule="evenodd" clip-rule="evenodd" d="M34.8989 36.9692C34.6727 37.6075 34.8954 38.2782 35.3996 38.4675C35.902 38.6567 36.4925 38.2928 36.7204 37.6546C36.9466 37.0165 36.7222 36.3457 36.2197 36.1565C35.7173 35.9672 35.1251 36.3311 34.8989 36.9692Z" fill="white"/>
<path opacity="0.89" fill-rule="evenodd" clip-rule="evenodd" d="M34.8713 36.6662C34.6451 37.3043 34.8695 37.9751 35.372 38.1643C35.8744 38.3536 36.4666 37.9897 36.6928 37.3516C36.919 36.7133 36.6963 36.0425 36.1921 35.8533C35.6897 35.664 35.0992 36.0279 34.8713 36.6662Z" fill="black"/>
<path fill-rule="evenodd" clip-rule="evenodd" d="M56.4537 32.4901L53.8726 29.8377C53.7724 29.7589 53.6446 29.7065 53.5445 29.6802L51.6211 69.5969L57.3135 62.1386L56.4537 32.4901Z" fill="url(#paint16_linear_1_1438)"/>
<path fill-rule="evenodd" clip-rule="evenodd" d="M52.9119 29.7069L31.4594 36.5872C31.4594 36.5872 30.5496 36.8499 30.3216 37.1387C30.2957 37.165 30.2957 37.1913 30.2715 37.2176L51.9001 31.02C52.078 30.9674 52.5079 30.8098 52.4578 32.0966L51.1421 69.5448L51.598 69.6236L53.5196 29.7069C53.2675 29.6281 52.9878 29.6806 52.9119 29.7069Z" fill="url(#paint17_linear_1_1438)"/>
<path fill-rule="evenodd" clip-rule="evenodd" d="M52.9119 29.7069L31.4594 36.5872C31.4594 36.5872 30.5496 36.8499 30.3216 37.1387C30.2957 37.165 30.2957 37.1913 30.2715 37.2176L35.2802 35.7731L52.5078 30.2322C52.5838 30.2059 52.8618 30.1533 53.1398 30.2059L51.2423 69.5448L51.598 69.6236L53.5196 29.7069C53.2675 29.6281 52.9878 29.6806 52.9119 29.7069Z" fill="url(#paint18_linear_1_1438)"/>
<path opacity="0.32" fill-rule="evenodd" clip-rule="evenodd" d="M58.4279 62.7952L57.2883 62.1387L51.5977 69.5968L51.8998 69.5179C51.8998 69.5179 56.9102 62.8215 57.3643 62.6113C57.6941 62.4801 58.4279 62.7952 58.4279 62.7952Z" fill="url(#paint19_linear_1_1438)"/>
<path opacity="0.57" fill-rule="evenodd" clip-rule="evenodd" d="M51.6211 69.5968L57.3135 62.1387C57.2876 62.165 53.6964 66.2353 51.6211 69.5968Z" fill="url(#paint20_linear_1_1438)"/>
<path opacity="0.46" fill-rule="evenodd" clip-rule="evenodd" d="M65.1309 66.5765L57.313 62.1646C57.2871 62.1646 58.1988 62.3221 65.1309 66.5765Z" fill="url(#paint21_linear_1_1438)"/>
<path opacity="0.3" fill-rule="evenodd" clip-rule="evenodd" d="M46.4661 34.3508C46.2382 34.9891 46.4626 35.6599 46.9651 35.8492C47.4692 36.0385 48.0597 35.6746 48.2859 35.0365C48.5138 34.3982 48.2894 33.7274 47.7869 33.5381C47.2845 33.3489 46.6923 33.7126 46.4661 34.3508Z" fill="white"/>
<path opacity="0.89" fill-rule="evenodd" clip-rule="evenodd" d="M46.4377 34.0488C46.2115 34.6871 46.436 35.3579 46.9385 35.5472C47.4409 35.7364 48.033 35.3727 48.2592 34.7344C48.4854 34.0962 48.2626 33.4255 47.7602 33.2361C47.2561 33.0468 46.6656 33.4107 46.4377 34.0488Z" fill="black"/>
<path fill-rule="evenodd" clip-rule="evenodd" d="M35.7865 37.9526C35.7606 37.9526 35.7105 37.9526 35.6846 37.9526C35.2805 37.9002 35.0026 37.5062 35.0527 37.0598C35.1028 36.6396 36.5444 26.818 42.4648 24.5859C43.9565 24.0343 45.222 24.1393 46.1837 24.9536C47.3474 25.9252 47.9794 27.8685 48.0812 30.7047C48.1572 32.7005 47.9294 34.4336 47.9294 34.5125C47.8793 34.9326 47.4994 35.2479 47.0937 35.169C46.6897 35.1164 46.3858 34.7226 46.4617 34.3023C46.6896 32.5166 46.9417 27.6059 45.248 26.1877C44.7162 25.7414 43.9825 25.6888 42.9966 26.0565C37.9119 27.9734 36.5703 37.1911 36.5703 37.2698C36.4684 37.6638 36.1663 37.9526 35.7865 37.9526Z" fill="#595961"/>
<path opacity="0.46" fill-rule="evenodd" clip-rule="evenodd" d="M45.878 25.0055C44.9922 24.2703 43.8286 24.1653 42.437 24.6643C40.0336 25.5833 38.01 27.9993 36.6184 31.6495C35.5824 34.3545 35.2268 36.7967 35.2268 36.9018C35.2027 37.0331 35.2528 37.1644 35.3287 37.2695C35.4047 37.3745 35.5065 37.4534 35.6325 37.4534C35.6567 37.4534 35.6826 37.4534 35.7085 37.4534C35.9364 37.4534 36.1384 37.2695 36.1643 37.0331C36.1885 36.9281 37.5301 27.5529 42.7667 25.5833C43.8285 25.1894 44.6883 25.2419 45.2961 25.7672C47.0917 27.2641 46.8396 32.3323 46.6117 34.1443C46.5858 34.407 46.7637 34.6696 47.0158 34.6959C47.2696 34.7221 47.5216 34.5383 47.5475 34.2758C47.5734 33.9868 48.4592 27.1591 45.878 25.0055Z" fill="#B2B2C2"/>
<path opacity="0.81" fill-rule="evenodd" clip-rule="evenodd" d="M35.6824 37.1647C35.6565 37.1647 35.6565 37.1647 35.6324 37.1647C35.4804 37.1384 35.3785 36.9808 35.4044 36.8233C35.4303 36.7181 35.7584 34.3285 36.7961 31.6235C38.1877 28.0259 40.1611 25.636 42.5127 24.7431C43.8542 24.2441 44.9419 24.3493 45.7759 25.0321C48.2552 27.1066 47.3954 33.8295 47.3453 34.1183C47.3194 34.2759 47.1934 34.3809 47.0156 34.3548C46.8654 34.3285 46.7635 34.1972 46.7635 34.0134C46.7635 33.9345 47.6233 27.343 45.3978 25.4522C44.7399 24.9532 43.8284 24.9008 42.7165 25.3209C37.3779 27.343 35.9863 36.8233 35.9863 36.9282C35.9604 37.0595 35.8343 37.1647 35.6824 37.1647Z" fill="#B2B2C2"/>
<path opacity="0.42" fill-rule="evenodd" clip-rule="evenodd" d="M39.0234 29.6537C39.3014 29.2599 39.5551 28.8659 39.8072 28.4458C39.7071 28.5771 38.9733 29.9427 37.4556 29.7325C37.4297 29.7325 38.3155 30.0214 39.0234 29.6537Z" fill="#595961"/>
<path opacity="0.42" fill-rule="evenodd" clip-rule="evenodd" d="M38.1647 31.3339C38.3926 30.9136 38.6205 30.4672 38.7966 30.0471C38.7206 30.2047 38.2147 31.6227 36.6211 31.6227C36.6211 31.6227 37.5069 31.8065 38.1647 31.3339Z" fill="#595961"/>
<path opacity="0.42" fill-rule="evenodd" clip-rule="evenodd" d="M37.5059 33.0681C37.7079 32.6215 37.8599 32.1751 38.0118 31.7288C37.9358 31.8863 37.6579 33.3306 35.9883 33.5145C35.9883 33.4882 36.8981 33.5933 37.5059 33.0681Z" fill="#595961"/>
<path opacity="0.62" fill-rule="evenodd" clip-rule="evenodd" d="M47.6267 27.9468C47.5006 27.474 47.3745 27.0276 47.1967 26.5549C47.2468 26.7125 47.7527 28.2094 46.7168 29.286C46.7168 29.286 47.4747 28.7609 47.6267 27.9468Z" fill="#595961"/>
<path opacity="0.62" fill-rule="evenodd" clip-rule="evenodd" d="M46.6398 25.5833C46.2858 25.2419 45.9301 24.9268 45.5762 24.6379C45.7039 24.7692 46.8918 25.7408 46.5638 27.2114C46.5379 27.2114 46.9178 26.3448 46.6398 25.5833Z" fill="#595961"/>
<path opacity="0.62" fill-rule="evenodd" clip-rule="evenodd" d="M47.8797 30.3629C47.8538 29.8903 47.7779 29.3913 47.7019 28.9185C47.7019 29.1023 47.9557 30.6518 46.7402 31.4921C46.7402 31.4921 47.5758 31.1244 47.8797 30.3629Z" fill="#595961"/>
<path opacity="0.62" fill-rule="evenodd" clip-rule="evenodd" d="M48.0059 32.8315C48.0318 32.3588 48.0318 31.8599 48.0059 31.3872C48.0059 31.5711 48.0317 33.1205 46.7402 33.8294C46.7402 33.8033 47.626 33.5406 48.0059 32.8315Z" fill="#595961"/>
<path opacity="0.42" fill-rule="evenodd" clip-rule="evenodd" d="M36.9246 34.9847C37.0765 34.512 37.1784 34.0393 37.2785 33.5928C37.2285 33.7503 37.0006 35.2472 35.457 35.6149C35.4829 35.6149 36.3928 35.5886 36.9246 34.9847Z" fill="#595961"/>
<path opacity="0.42" fill-rule="evenodd" clip-rule="evenodd" d="M39.9838 28.2088C40.3377 27.8937 40.6674 27.5523 40.9713 27.1846C40.8435 27.2896 39.8318 28.3663 38.416 27.9724C38.4402 27.9724 39.2241 28.4452 39.9838 28.2088Z" fill="#595961"/>
<path opacity="0.42" fill-rule="evenodd" clip-rule="evenodd" d="M41.1207 27.0016C41.5264 26.739 41.9063 26.4763 42.2844 26.1875C42.1342 26.2664 40.9704 27.1328 39.6289 26.5026C39.6289 26.5026 40.3368 27.1066 41.1207 27.0016Z" fill="#595961"/>
<path opacity="0.62" fill-rule="evenodd" clip-rule="evenodd" d="M42.6671 26.135C43.1229 26.0036 43.5529 25.846 43.9828 25.6885C43.8309 25.7411 42.4652 26.2137 41.3516 25.2158C41.3516 25.2158 41.8833 26.0036 42.6671 26.135Z" fill="#595961"/>
<path opacity="0.62" fill-rule="evenodd" clip-rule="evenodd" d="M43.9542 25.6625C44.3099 25.7151 44.6639 25.7414 45.0178 25.7677C44.8918 25.7414 43.804 25.6626 43.3223 24.6121C43.3482 24.6121 43.4743 25.3211 43.9542 25.6625Z" fill="#595961"/>
<path opacity="0.62" fill-rule="evenodd" clip-rule="evenodd" d="M45.3221 26.2398C45.55 26.5286 45.7762 26.8174 46.0041 27.0801C45.9281 26.975 45.2202 26.1085 45.5742 25.0317C45.6001 25.0317 45.2202 25.6358 45.3221 26.2398Z" fill="#595961"/>
<path fill-rule="evenodd" clip-rule="evenodd" d="M47.0672 33.9867C47.0914 33.6979 47.953 27.0539 45.5496 25.0318C45.0938 24.6379 44.5379 24.4541 43.9301 24.4541C43.4743 24.4541 42.9684 24.5591 42.4367 24.7692C40.1093 25.6359 38.1617 27.9731 36.796 31.5445C35.7583 34.2231 35.4302 36.613 35.4043 36.7179C35.4043 36.7966 35.4545 36.8755 35.5304 36.8755H35.5563C35.6322 36.8755 35.6823 36.8229 35.6823 36.7442C35.7082 36.6391 37.0739 27.0539 42.5125 25.0055C43.6762 24.5591 44.6638 24.6379 45.3717 25.2419C47.6732 27.1589 46.8135 33.8555 46.7893 33.9343C46.7893 34.013 46.8394 34.0919 46.9153 34.0919C46.9153 34.0919 46.9153 34.0919 46.9395 34.0919C47.0154 34.1182 47.0672 34.0656 47.0672 33.9867Z" fill="url(#paint22_linear_1_1438)"/>
<path fill-rule="evenodd" clip-rule="evenodd" d="M48.0805 30.7039C47.9786 27.8677 47.3467 25.9506 46.183 24.9527C45.5511 24.4276 44.7915 24.1912 43.9316 24.2437C44.5895 24.2962 45.1955 24.5326 45.7031 24.9527C46.8668 25.9245 47.4986 27.8677 47.5988 30.7039C47.6748 32.6998 47.4486 34.4329 47.4486 34.5117C47.3968 34.8269 47.1948 35.0633 46.941 35.142C46.9928 35.1683 47.0169 35.1683 47.0687 35.1683C47.4727 35.2208 47.8526 34.9318 47.9027 34.5117C47.9286 34.4329 48.1564 32.726 48.0805 30.7039Z" fill="url(#paint23_linear_1_1438)"/>
<path fill-rule="evenodd" clip-rule="evenodd" d="M42.4888 26.0562C37.4041 27.9732 36.0626 37.1908 36.0626 37.2958C36.0125 37.6109 35.8087 37.8474 35.5566 37.9261C35.6067 37.9523 35.6326 37.9523 35.6827 37.9523C35.7086 37.9523 35.7587 37.9523 35.7846 37.9523C36.1644 37.9523 36.4665 37.6635 36.5183 37.2958C36.5425 37.1908 37.8582 27.9995 42.9429 26.0823C43.2985 25.9511 43.6007 25.8724 43.8804 25.8461C43.5006 25.7935 43.0188 25.8724 42.4888 26.0562Z" fill="url(#paint24_linear_1_1438)"/>
<defs>
<linearGradient id="paint0_linear_1_1438" x1="41.7599" y1="25.8789" x2="40.9664" y2="36.6811" gradientUnits="userSpaceOnUse">
<stop stop-color="white" stop-opacity="0.65"/>
<stop offset="1" stop-color="white" stop-opacity="0.01"/>
</linearGradient>
<linearGradient id="paint1_linear_1_1438" x1="47.5588" y1="32.0622" x2="53.1448" y2="36.9549" gradientUnits="userSpaceOnUse">
<stop stop-opacity="0.01"/>
<stop offset="1" stop-opacity="0.4"/>
</linearGradient>
<linearGradient id="paint2_linear_1_1438" x1="45.319" y1="37.722" x2="51.2316" y2="32.2148" gradientUnits="userSpaceOnUse">
<stop stop-opacity="0.01"/>
<stop offset="1" stop-opacity="0.4"/>
</linearGradient>
<linearGradient id="paint3_linear_1_1438" x1="37.7904" y1="21.6503" x2="14.8252" y2="48.1112" gradientUnits="userSpaceOnUse">
<stop stop-color="#B8D26E"/>
<stop offset="1" stop-color="#7FB525"/>
</linearGradient>
<linearGradient id="paint4_linear_1_1438" x1="69.2067" y1="28.2754" x2="56.603" y2="28.5094" gradientUnits="userSpaceOnUse">
<stop stop-color="#B4E034"/>
<stop offset="1" stop-color="#60A927"/>
</linearGradient>
<linearGradient id="paint5_linear_1_1438" x1="31.7164" y1="45.9191" x2="21.383" y2="71.0829" gradientUnits="userSpaceOnUse">
<stop stop-color="white"/>
<stop offset="1" stop-color="#CECEEB"/>
</linearGradient>
<linearGradient id="paint6_linear_1_1438" x1="46.533" y1="107.89" x2="62.8989" y2="107.857" gradientUnits="userSpaceOnUse">
<stop stop-color="#1D1D1B" stop-opacity="0.5"/>
<stop offset="0.038033" stop-color="#1D1D1B" stop-opacity="0.4837"/>
<stop offset="0.4243" stop-color="#1D1D1B" stop-opacity="0.3185"/>
<stop offset="1" stop-color="#1D1D1B" stop-opacity="0.01"/>
</linearGradient>
<linearGradient id="paint7_linear_1_1438" x1="48.4332" y1="29.1257" x2="45.7181" y2="30.587" gradientUnits="userSpaceOnUse">
<stop stop-opacity="0.01"/>
<stop offset="1" stop-opacity="0.4"/>
</linearGradient>
<linearGradient id="paint8_linear_1_1438" x1="37.049" y1="33.4597" x2="35.1404" y2="35.0999" gradientUnits="userSpaceOnUse">
<stop stop-opacity="0.01"/>
<stop offset="1" stop-opacity="0.4"/>
</linearGradient>
<linearGradient id="paint9_linear_1_1438" x1="55.6681" y1="66.5961" x2="55.8614" y2="69.1432" gradientUnits="userSpaceOnUse">
<stop stop-opacity="0.01"/>
<stop offset="1" stop-opacity="0.4"/>
</linearGradient>
<linearGradient id="paint10_linear_1_1438" x1="51.1566" y1="62.8671" x2="51.6046" y2="69.4896" gradientUnits="userSpaceOnUse">
<stop stop-color="white" stop-opacity="0.5"/>
<stop offset="0.0896271" stop-color="white" stop-opacity="0.4552"/>
<stop offset="1" stop-color="white" stop-opacity="0.01"/>
</linearGradient>
<linearGradient id="paint11_linear_1_1438" x1="50.2951" y1="63.8972" x2="51.092" y2="70.9714" gradientUnits="userSpaceOnUse">
<stop stop-opacity="0.01"/>
<stop offset="1" stop-opacity="0.4"/>
</linearGradient>
<linearGradient id="paint12_linear_1_1438" x1="47.1677" y1="23.1962" x2="26.7301" y2="35.0165" gradientUnits="userSpaceOnUse">
<stop stop-color="white" stop-opacity="0.5"/>
<stop offset="1" stop-color="white" stop-opacity="0.01"/>
</linearGradient>
<linearGradient id="paint13_linear_1_1438" x1="51.1117" y1="84.973" x2="69.1507" y2="85.0094" gradientUnits="userSpaceOnUse">
<stop stop-color="#1D1D1B" stop-opacity="0.5"/>
<stop offset="0.0896271" stop-color="#1D1D1B" stop-opacity="0.4552"/>
<stop offset="1" stop-color="#1D1D1B" stop-opacity="0.01"/>
</linearGradient>
<linearGradient id="paint14_linear_1_1438" x1="64.0312" y1="31.5212" x2="61.4687" y2="32.1491" gradientUnits="userSpaceOnUse">
<stop stop-color="white" stop-opacity="0.4"/>
<stop offset="1" stop-color="white" stop-opacity="0.01"/>
</linearGradient>
<linearGradient id="paint15_linear_1_1438" x1="41.038" y1="69.8882" x2="42.3705" y2="63.4641" gradientUnits="userSpaceOnUse">
<stop stop-color="#1D1D1B" stop-opacity="0.5"/>
<stop offset="0.0896271" stop-color="#1D1D1B" stop-opacity="0.4552"/>
<stop offset="1" stop-color="#1D1D1B" stop-opacity="0.01"/>
</linearGradient>
<linearGradient id="paint16_linear_1_1438" x1="48.7429" y1="107.073" x2="65.1676" y2="107.087" gradientUnits="userSpaceOnUse">
<stop stop-color="#1D1D1B" stop-opacity="0.5"/>
<stop offset="1" stop-color="#1D1D1B" stop-opacity="0.01"/>
</linearGradient>
<linearGradient id="paint17_linear_1_1438" x1="33.735" y1="27.3927" x2="25.769" y2="57.9977" gradientUnits="userSpaceOnUse">
<stop stop-color="white" stop-opacity="0.5"/>
<stop offset="1" stop-color="white" stop-opacity="0.01"/>
</linearGradient>
<linearGradient id="paint18_linear_1_1438" x1="33.735" y1="27.3927" x2="25.769" y2="57.9977" gradientUnits="userSpaceOnUse">
<stop stop-color="white" stop-opacity="0.5"/>
<stop offset="1" stop-color="white" stop-opacity="0.01"/>
</linearGradient>
<linearGradient id="paint19_linear_1_1438" x1="53.067" y1="59.4745" x2="46.7706" y2="68.1406" gradientUnits="userSpaceOnUse">
<stop stop-color="white" stop-opacity="0.5"/>
<stop offset="0.0896271" stop-color="white" stop-opacity="0.4552"/>
<stop offset="1" stop-color="white" stop-opacity="0.01"/>
</linearGradient>
<linearGradient id="paint20_linear_1_1438" x1="54.9654" y1="61.4669" x2="54.342" y2="62.8643" gradientUnits="userSpaceOnUse">
<stop stop-opacity="0.01"/>
<stop offset="1" stop-opacity="0.4"/>
</linearGradient>
<linearGradient id="paint21_linear_1_1438" x1="61.1477" y1="63.3144" x2="61.1169" y2="63.69" gradientUnits="userSpaceOnUse">
<stop stop-opacity="0.01"/>
<stop offset="1" stop-opacity="0.4"/>
</linearGradient>
<linearGradient id="paint22_linear_1_1438" x1="38.4741" y1="23.5701" x2="35.7522" y2="34.3231" gradientUnits="userSpaceOnUse">
<stop stop-color="white" stop-opacity="0.65"/>
<stop offset="1" stop-color="white" stop-opacity="0.01"/>
</linearGradient>
<linearGradient id="paint23_linear_1_1438" x1="44.567" y1="29.7728" x2="49.302" y2="34.5868" gradientUnits="userSpaceOnUse">
<stop stop-opacity="0.01"/>
<stop offset="1" stop-opacity="0.4"/>
</linearGradient>
<linearGradient id="paint24_linear_1_1438" x1="41.5392" y1="36.8623" x2="48.0813" y2="30.1437" gradientUnits="userSpaceOnUse">
<stop stop-opacity="0.01"/>
<stop offset="1" stop-opacity="0.4"/>
</linearGradient>
</defs>
</svg>
