<svg width="100" height="100" viewBox="0 0 100 100" fill="none" xmlns="http://www.w3.org/2000/svg">
<rect x="7.57444" y="7.57395" width="91.75" height="91.75" rx="6.08405" fill="#0A102F" stroke="#0A102F" stroke-width="1.35201"/>
<rect x="0.676005" y="0.676005" width="91.75" height="91.75" rx="6.08405" fill="#FCFAFF" stroke="#0A102F" stroke-width="1.35201"/>
<path d="M64.881 44.8051C67.2911 44.8051 69.2448 42.8514 69.2448 40.4413C69.2448 38.0313 67.2909 36.0775 64.8809 36.0775C62.4706 36.0775 60.5165 38.0314 60.5165 40.4417V44.8051H64.881ZM52.661 44.8051C55.0713 44.8051 57.0252 42.8512 57.0252 40.441V28.2221C57.0252 25.8118 55.0713 23.8579 52.661 23.8579C50.2508 23.8579 48.2969 25.8118 48.2969 28.2221V40.441C48.2969 42.8512 50.2508 44.8051 52.661 44.8051Z" fill="#2EB67D"/>
<path d="M28.2225 48.2972C25.8124 48.2972 23.8587 50.2509 23.8587 52.661C23.8587 55.071 25.8126 57.0247 28.2227 57.0247C30.6329 57.0247 32.587 55.0708 32.587 52.6606V48.2972H28.2225ZM40.4425 48.2972C38.0322 48.2972 36.0783 50.2511 36.0783 52.6613V64.8802C36.0783 67.2905 38.0322 69.2444 40.4425 69.2444C42.8527 69.2444 44.8066 67.2905 44.8066 64.8802V52.6613C44.8066 50.2511 42.8527 48.2972 40.4425 48.2972Z" fill="#E01E5A"/>
<path d="M48.2969 64.881C48.2969 67.2911 50.2507 69.2448 52.6607 69.2448C55.0708 69.2448 57.0245 67.2909 57.0245 64.8809C57.0245 62.4706 55.0706 60.5165 52.6603 60.5165L48.2969 60.5165L48.2969 64.881ZM48.2969 52.661C48.2969 55.0713 50.2508 57.0252 52.6611 57.0252L64.88 57.0252C67.2902 57.0252 69.2441 55.0713 69.2441 52.661C69.2441 50.2508 67.2902 48.2969 64.88 48.2969L52.6611 48.2969C50.2508 48.2969 48.2969 50.2508 48.2969 52.661Z" fill="#ECB22E"/>
<path d="M44.8046 28.2213C44.8046 25.8112 42.8509 23.8575 40.4408 23.8575C38.0308 23.8575 36.0771 25.8114 36.0771 28.2214C36.0771 30.6317 38.031 32.5858 40.4412 32.5858L44.8046 32.5858L44.8046 28.2213ZM44.8046 40.4413C44.8046 38.031 42.8507 36.0771 40.4405 36.0771L28.2216 36.0771C25.8113 36.0771 23.8574 38.031 23.8574 40.4413C23.8574 42.8515 25.8113 44.8054 28.2216 44.8054L40.4405 44.8054C42.8507 44.8054 44.8046 42.8515 44.8046 40.4413Z" fill="#36C5F0"/>
</svg>
