<svg width="100" height="100" viewBox="0 0 100 100" fill="none" xmlns="http://www.w3.org/2000/svg">
<rect x="7.57444" y="7.57395" width="91.75" height="91.75" rx="6.08405" fill="#0A102F" stroke="#0A102F" stroke-width="1.35201"/>
<rect x="0.676005" y="0.676005" width="91.75" height="91.75" rx="6.08405" fill="#FCFAFF" stroke="#0A102F" stroke-width="1.35201"/>
<circle cx="46.5" cy="46.5" r="24.9375" fill="#1ED760"/>
<path d="M57.8365 56.5159C57.4104 57.1919 56.5015 57.3812 55.7915 56.9756C50.196 53.7307 43.1804 53.0006 34.8867 54.7853C34.0914 54.9475 33.2961 54.4878 33.1257 53.7307C32.9552 52.9735 33.4381 52.2164 34.2334 52.0541C43.294 50.0802 51.0765 50.9184 57.3252 54.5689C58.0353 54.9746 58.2625 55.8399 57.8365 56.5159ZM60.7336 50.3506C60.194 51.1888 59.0578 51.4322 58.1773 50.9455C51.7866 47.1868 42.0443 46.1052 34.489 48.2955C33.4949 48.5659 32.4724 48.0521 32.1884 47.1327C31.9043 46.1863 32.444 45.2128 33.4381 44.9424C42.0727 42.4546 52.8091 43.6444 60.1656 47.9439C60.9892 48.4307 61.2733 49.5123 60.7336 50.3506ZM60.9892 43.9148C53.3204 39.5883 40.6809 39.1827 33.3529 41.2919C32.1884 41.6434 30.9386 41.0215 30.5694 39.8857C30.2001 38.7771 30.8818 37.5873 32.0463 37.2357C40.4537 34.8021 54.4281 35.2888 63.2331 40.2643C64.284 40.8592 64.6249 42.1572 64 43.1577C63.4035 44.1853 62.0402 44.5368 60.9892 43.9148Z" fill="white"/>
</svg>
