<svg width="100" height="100" viewBox="0 0 100 100" fill="none" xmlns="http://www.w3.org/2000/svg">
<rect x="7.57444" y="7.57395" width="91.75" height="91.75" rx="6.08405" fill="#0A102F" stroke="#0A102F" stroke-width="1.35201"/>
<rect x="0.676005" y="0.676005" width="91.75" height="91.75" rx="6.08405" fill="#FCFAFF" stroke="#0A102F" stroke-width="1.35201"/>
<path d="M29.1197 31.2119L22.5703 37.1485L24.8365 40.002C25.8456 39.3746 27.864 37.7381 28.7641 37.7381C30.7825 37.7381 32.597 43.2069 34.3283 49.221C35.883 54.6216 37.4922 68.0411 44.9111 68.0411C53.4483 68.0411 71.3955 44.9934 71.3955 34.7356C71.3955 31.0239 70.6591 25.6824 63.2675 25.6824C55.3467 25.6824 51.4498 33.3265 50.4915 37.1485C51.1809 36.6889 53.0576 36.3825 54.0917 36.3825C58.3048 36.3825 57.405 40.7495 56.8305 42.5113C56.256 44.2731 51.8391 52.8518 49.4574 52.8518C46.5465 52.8518 44.823 40.2126 43.9804 34.7356C43.1378 29.2586 40.9546 26.2711 37.6225 26.2711C34.9567 26.2711 30.8432 29.565 29.1197 31.2119Z" fill="#3CB9E6"/>
</svg>
