<svg width="100" height="100" viewBox="0 0 100 100" fill="none" xmlns="http://www.w3.org/2000/svg">
<rect x="7.57444" y="7.57395" width="91.75" height="91.75" rx="6.08405" fill="#0A102F" stroke="#0A102F" stroke-width="1.35201"/>
<rect x="0.676005" y="0.676005" width="91.75" height="91.75" rx="6.08405" fill="#FCFAFF" stroke="#0A102F" stroke-width="1.35201"/>
<circle cx="46.929" cy="46.93" r="24.4387" fill="#4087FC"/>
<path d="M33.4299 36.4563C32.2087 36.4563 31.2188 37.5728 31.2188 38.95V51.0447C31.2188 54.5567 33.7431 57.4038 36.8571 57.4038L49.9551 57.2792C51.1763 57.2792 52.1663 56.1627 52.1663 54.7854V42.566C52.1663 39.054 49.1705 36.4563 46.0566 36.4563L33.4299 36.4563Z" fill="white"/>
<path d="M55.1551 41.2177C54.365 41.9989 53.9119 43.1265 53.9119 44.3117V49.3727C53.9119 50.5578 54.365 51.6854 55.1551 52.4667L60.0719 56.7971C61.0723 57.7863 62.64 56.9851 62.64 55.4845V38.4379C62.64 36.9373 61.0723 36.136 60.0719 37.1253L55.1551 41.2177Z" fill="white"/>
</svg>
