<svg width="98" height="94" viewBox="0 0 98 94" fill="none" xmlns="http://www.w3.org/2000/svg">
<path d="M54.9983 45.6922C54.0008 44.4412 53.4732 42.8704 53.513 41.2679C53.5808 38.3798 55.4596 35.8417 58.187 34.9517C58.7278 34.7756 59.0535 34.2245 58.9489 33.6653L57.3987 25.4858C57.2823 24.8721 56.6885 24.4691 56.0755 24.5847C42.7758 27.1005 37.9512 43.9286 48.1509 53.062C48.3843 53.2722 48.6904 53.3679 48.9687 53.3493C49.7883 53.3049 49.5646 53.0107 54.9556 47.1517C55.324 46.7406 55.3417 46.1239 54.9983 45.6922ZM48.8464 50.5872C41.3284 42.6952 45.2104 29.8567 55.3932 27.0632L56.55 33.1643C51.5782 35.4276 49.6936 41.635 52.6672 46.3162L48.8464 50.5872Z" fill="#0A102F"/>
<path d="M60.6628 23.9002C60.0469 24.0019 59.6284 24.584 59.7301 25.2006L60.844 31.984C60.9295 32.5019 61.3598 32.8931 61.8829 32.9292C62.8038 32.9926 63.5583 33.123 64.2479 33.5496C64.4321 33.6638 64.6384 33.7191 64.8432 33.7191C65.6613 33.7191 65.5637 33.3104 70.416 28.7327C70.861 28.298 70.8728 27.5855 70.4411 27.1376C69.6395 26.3036 68.7112 25.6044 67.6841 25.0584C65.5475 23.9187 63.0587 23.509 60.6628 23.9002ZM64.6325 31.2119C64.0593 30.9739 63.4846 30.842 62.9379 30.7632L62.1584 26.0228C64.3595 25.9596 66.386 26.677 67.9788 27.948L64.6325 31.2119Z" fill="#0A102F"/>
<path d="M75.8694 37.0905L68.739 39.734C68.2351 39.9204 67.933 40.4347 68.0141 40.9659C68.6047 44.8714 65.5294 48.6665 61.342 48.6665C60.1764 48.6665 59.0757 48.3806 58.0707 47.8163C57.5963 47.5518 56.9965 47.6615 56.6458 48.08L51.3367 54.4707C50.9389 54.9511 51.0037 55.6628 51.4826 56.0636C61.4546 64.3825 76.8095 58.2219 78.2506 45.2663C78.5335 42.737 78.2123 40.14 77.3238 37.7558C77.1042 37.1701 76.4544 36.8761 75.8694 37.0905ZM76.002 45.0158C74.8123 55.7208 62.5234 61.1485 53.8285 55.0144L57.8173 50.2129C63.8097 52.7868 70.5922 48.2072 70.3363 41.5553L75.5541 39.6213C76.0477 41.3674 76.2024 43.2115 76.002 45.0158Z" fill="#0A102F"/>
<path d="M78.3889 24.5147C77.9026 24.125 77.1909 24.2016 76.799 24.6878L70.227 32.8593C69.9456 33.2085 69.897 33.6911 70.1033 34.0889C70.594 35.0349 70.9432 35.4239 71.4457 35.9846C71.7346 36.3087 72.1907 36.4437 72.62 36.3132L82.5074 33.302C83.0953 33.123 83.4327 32.5056 83.2662 31.9133C82.4082 28.8577 80.6609 26.3387 78.3889 24.5147Z" fill="#0A102F"/>
<path d="M86.9521 10.9715C57.6071 9.52729 31.4941 10.5709 3.54637 10.5368H3.5449C3.23841 10.5368 2.94517 10.6606 2.73299 10.8809C2.68031 10.9352 2.65323 11.0056 2.6129 11.0682C1.83073 12.0783 -0.0615408 13.1255 0.00153936 15.6226C0.39147 31.0637 0.998284 52.8559 1.37081 68.2718C1.40323 69.6134 1.44504 70.9978 2.00267 72.2186C2.43156 73.1574 3.25056 73.9749 4.21415 74.2618C4.24878 74.3082 4.26932 74.3635 4.31113 74.4044C4.52332 74.6122 4.80771 74.7271 5.10241 74.7271C8.09652 74.7271 24.7065 74.229 40.3665 73.288C40.3686 73.309 40.3605 73.3283 40.3638 73.3494C40.6134 74.9269 40.6957 77.8588 40.6754 80.3074C34.9034 81.3914 30.5842 81.8678 25.4296 82.7917C24.8372 82.8981 24.3887 83.4703 24.5289 84.1367C24.5251 84.8598 24.454 85.6898 24.4718 86.3788C28.4324 89.0538 33.1831 91.3834 37.5301 93.3698C39.0543 94.0664 59.5849 90.8615 70.8056 89.6363C70.7459 88.6275 70.796 87.8777 70.7928 86.9642C71.1604 86.3135 70.8165 85.5575 70.1761 85.3409C65.3637 83.7073 60.5115 81.3372 55.5897 79.6664C53.4713 78.9491 51.2577 79.4236 49.0656 79.5702C48.8476 71.7271 48.8845 72.8579 48.8769 72.7413C62.3151 71.7995 75.4093 70.5651 88.0558 69.032C88.6054 68.9656 89.0268 68.5118 89.0504 67.9592C89.7017 53.0767 88.7351 29.4053 88.0263 12.0553C88.0027 11.4703 87.5371 11.0003 86.9521 10.9715ZM46.862 82.3983C46.8679 83.0186 47.3733 83.5181 47.9937 83.5181H48.0055C48.6302 83.5122 49.1312 82.9995 49.1253 82.3747C49.1237 82.2063 49.1197 82.0141 49.1169 81.8333C55.113 81.4549 52.0784 80.5913 64.7181 85.7019C55.8144 86.5272 46.635 87.7805 37.7601 88.4382C34.9392 86.9682 32.0432 85.7373 29.2814 84.4406C32.7086 83.9002 36.4553 83.3865 40.6177 82.6194C40.6101 82.7817 40.604 82.9634 40.5951 83.107C40.5572 83.7508 41.0639 84.308 41.7268 84.308C42.3191 84.308 42.8187 83.8453 42.8555 83.2455C43.0074 80.7528 42.9868 75.6569 42.6193 73.1471C43.9551 73.0633 45.2982 72.9861 46.6274 72.8964C46.6589 75.5425 46.8367 79.8696 46.862 82.3983ZM86.8283 66.9012C61.4852 69.9367 34.3813 71.7992 6.2326 72.4387C6.15208 34.4342 4.74047 18.1664 4.69277 12.8009C29.2739 12.8499 56.7233 11.8079 85.8072 13.1818C86.4924 29.9593 87.3853 52.3502 86.8283 66.9012Z" fill="#0A102F"/>
<path d="M84.9518 8.71925C85.3747 8.71925 85.7785 8.48275 85.973 8.07753L89.0718 1.62203C89.3415 1.05841 89.1028 0.382801 88.5399 0.11241C87.9755 -0.160192 87.3006 0.0807292 87.0295 0.643614L83.9336 7.09764C83.5695 7.85463 84.1292 8.71925 84.9518 8.71925Z" fill="#0A102F"/>
<path d="M95.9705 5.938C95.6316 5.41564 94.9331 5.26313 94.4041 5.60572L89.2409 8.9624C88.7178 9.30352 88.569 10.0042 88.9094 10.528C89.2479 11.0496 89.9469 11.202 90.4757 10.8603L95.6389 7.50362C96.162 7.1625 96.3109 6.46184 95.9705 5.938Z" fill="#0A102F"/>
<path d="M96.6833 15.5137L91.7794 15.0083C91.1428 14.9486 90.602 15.3965 90.5372 16.0176C90.4738 16.6394 90.9247 17.1957 91.5466 17.2598C96.1685 17.7339 96.4773 17.7711 96.5698 17.7711C97.143 17.7711 97.6337 17.3372 97.6941 16.7551C97.7574 16.1333 97.3051 15.5778 96.6833 15.5137Z" fill="#0A102F"/>
<path d="M20.3744 42.5381C19.7865 41.9701 19.2013 42.3303 14.9416 42.3369C14.3271 42.3524 13.8379 42.8549 13.8379 43.4686V60.0936C13.8379 60.7184 14.3448 61.2253 14.9696 61.2253C16.5681 61.2253 18.0277 61.0366 19.8263 61.0366C20.464 61.0366 20.967 60.5132 20.9579 59.8888C20.5969 42.9537 21.0102 43.148 20.3744 42.5381ZM16.1012 58.9324V44.5722L18.4751 44.5133L18.6784 58.7954C17.6863 58.8301 16.9519 58.8953 16.1012 58.9324Z" fill="#0A102F"/>
<path d="M29.1118 37.9636L24.4908 38.1065C23.8808 38.1249 23.3945 38.6259 23.3945 39.2374V59.9669C23.3945 60.5917 23.9014 61.0986 24.5262 61.0986C26.0919 61.0986 27.5963 60.8643 29.3829 60.8643C30.0157 60.8643 30.5207 60.3471 30.5146 59.7194L30.2788 39.0812C30.2723 38.4136 29.6749 37.9143 29.1118 37.9636ZM25.6579 58.7984V40.3345L28.0288 40.2615L28.238 58.6275C27.2475 58.672 26.5155 58.7489 25.6579 58.7984Z" fill="#0A102F"/>
<path d="M38.9809 34.1265C38.3876 33.5572 38.0849 33.9245 33.5377 33.9828C32.9291 34.0049 32.4473 34.5052 32.4473 35.1137V59.5897C32.4473 60.2144 32.9542 60.7213 33.5789 60.7213C35.209 60.7213 36.6243 60.4443 38.4357 60.4443C39.0598 60.4443 39.5735 59.935 39.5673 59.3023C39.1914 33.6192 39.6327 34.7479 38.9809 34.1265ZM34.7106 58.4138V36.2049L37.08 36.1187L37.2937 58.2119C36.2306 58.2674 35.5704 58.3557 34.7106 58.4138Z" fill="#0A102F"/>
<path d="M82.9367 19.856C82.9367 19.2313 82.4298 18.7244 81.805 18.7244H7.67659C7.05181 18.7244 6.54492 19.2313 6.54492 19.856C6.54492 20.4808 7.05181 20.9877 7.67659 20.9877H81.805C82.4298 20.9877 82.9367 20.4808 82.9367 19.856Z" fill="#0A102F"/>
<path d="M11.4537 18.2758C12.9461 18.2758 14.0605 16.6502 13.4871 15.2661C12.9184 13.8965 10.9977 13.5502 9.97279 14.5971C8.54778 15.2672 9.31963 18.2758 11.4537 18.2758Z" fill="#0A102F"/>
<path d="M20.77 17.6982C22.4435 16.9362 21.9636 14.1114 19.9581 14.0586C18.4561 13.4843 16.9973 16.1303 18.6422 17.4801C19.3612 18.0712 20.2961 18.0409 20.77 17.6982Z" fill="#0A102F"/>
<path d="M28.1049 17.7689C28.5008 17.7689 28.9746 17.6396 29.2572 17.3622C30.71 16.3717 30.0818 14.053 28.4055 13.7617C27.0891 13.5349 25.8561 14.7386 26.0567 16.0596C26.1495 16.6807 27.1005 17.7689 28.1049 17.7689Z" fill="#0A102F"/>
</svg>
