<svg width="60" height="60" viewBox="0 0 60 60" fill="none" xmlns="http://www.w3.org/2000/svg">
<path d="M11.4112 34.7608H22.1829C21.5467 33.1589 20.4997 31.7529 19.1474 30.6843C17.795 29.6157 16.185 28.9222 14.4794 28.6738C12.7738 28.4253 11.0328 28.6306 9.43177 29.2689C7.83073 29.9073 6.42613 30.9561 5.35938 32.31C6.9796 33.8852 9.15139 34.7647 11.4112 34.7608Z" fill="#FFD02F"/>
<path d="M11.4112 37.6179C8.65776 37.6272 5.99277 36.6464 3.90239 34.8542C3.3679 36.2308 3.15063 37.7101 3.26674 39.1821C3.38285 40.6542 3.82935 42.0812 4.57304 43.3569C5.31672 44.6326 6.33845 45.7242 7.56222 46.5506C8.786 47.3769 10.1803 47.9167 11.6415 48.1298C13.1027 48.343 14.5931 48.2239 16.002 47.7815C17.4108 47.3392 18.7018 46.5849 19.7788 45.5747C20.8559 44.5646 21.6914 43.3246 22.2232 41.9471C22.7549 40.5695 22.9692 39.0898 22.8502 37.6179H11.4112Z" fill="#FFD02F"/>
<path d="M21.1807 48.145C19.2806 49.736 16.9521 50.7291 14.4887 50.9993V55.7142C14.4887 56.0931 14.3382 56.4564 14.0703 56.7243C13.8024 56.9923 13.439 57.1428 13.0601 57.1428C12.6812 57.1428 12.3179 56.9923 12.05 56.7243C11.7821 56.4564 11.6315 56.0931 11.6315 55.7142V50.9994C9.16764 50.7297 6.83875 49.7365 4.93849 48.1451C3.41457 49.4205 2.18431 51.0101 1.33197 52.8052C0.479624 54.6002 0.0253363 56.5583 0.000220143 58.5453C-0.00311015 58.735 0.0313743 58.9236 0.101662 59.0998C0.171951 59.2761 0.276635 59.4366 0.409611 59.572C0.542586 59.7074 0.70119 59.815 0.876173 59.8885C1.05116 59.9619 1.23901 59.9998 1.42879 59.9999H24.6905C24.8803 59.9998 25.0681 59.9619 25.2431 59.8885C25.4181 59.815 25.5767 59.7074 25.7097 59.572C25.8427 59.4366 25.9473 59.2761 26.0176 59.0998C26.0879 58.9236 26.1224 58.735 26.1191 58.5453C26.094 56.5583 25.6397 54.6002 24.7873 52.8051C23.9349 51.01 22.7047 49.4203 21.1807 48.145Z" fill="#FFD02F"/>
<path d="M28.0488 50.4762C28.0489 50.855 28.1995 51.2183 28.4674 51.4862C28.7352 51.7541 29.0985 51.9047 29.4774 51.9048H51.1552C51.5341 51.9048 51.8975 51.7542 52.1654 51.4863C52.4333 51.2184 52.5838 50.8551 52.5838 50.4762C52.5838 50.0973 52.4333 49.7339 52.1654 49.466C51.8975 49.1981 51.5341 49.0476 51.1552 49.0476H29.4774C29.0985 49.0477 28.7352 49.1982 28.4674 49.4661C28.1995 49.734 28.0489 50.0973 28.0488 50.4762Z" fill="#0A102F"/>
<path d="M41.6309 43.8095C41.631 44.1883 41.7815 44.5516 42.0494 44.8195C42.3173 45.0874 42.6806 45.2379 43.0594 45.238H51.1547C51.5335 45.2379 51.8968 45.0874 52.1647 44.8195C52.4326 44.5516 52.5831 44.1883 52.5832 43.8095V35.7142C52.5831 35.3354 52.4326 34.9721 52.1647 34.7042C51.8968 34.4363 51.5335 34.2857 51.1547 34.2856H43.0594C42.6806 34.2857 42.3173 34.4363 42.0494 34.7042C41.7815 34.9721 41.631 35.3354 41.6309 35.7142V43.8095ZM44.488 37.1428H49.7261V42.3809H44.488V37.1428Z" fill="#0A102F"/>
<path d="M41.6309 29.9999C41.6309 30.3788 41.7814 30.7421 42.0493 31.01C42.3172 31.2779 42.6806 31.4284 43.0594 31.4285H51.1547C51.5335 31.4284 51.8969 31.2779 52.1648 31.01C52.4327 30.7421 52.5832 30.3788 52.5832 29.9999V21.9046C52.5832 21.5258 52.4327 21.1624 52.1648 20.8945C51.8969 20.6266 51.5335 20.4761 51.1547 20.4761H43.0594C42.6806 20.4761 42.3172 20.6266 42.0493 20.8945C41.7814 21.1624 41.6309 21.5258 41.6309 21.9046V29.9999ZM44.488 23.3332H49.7261V28.5713H44.488V23.3332Z" fill="#0A102F"/>
<path d="M43.0594 17.6191H51.1547C51.5335 17.6191 51.8969 17.4686 52.1648 17.2007C52.4327 16.9328 52.5832 16.5694 52.5832 16.1906V8.09532C52.5832 7.71644 52.4327 7.35309 52.1648 7.08519C51.8969 6.81728 51.5335 6.66677 51.1547 6.66675H43.0594C42.6806 6.66677 42.3172 6.81728 42.0493 7.08519C41.7814 7.35309 41.6309 7.71644 41.6309 8.09532V16.1906C41.6309 16.5694 41.7814 16.9328 42.0493 17.2007C42.3172 17.4686 42.6806 17.6191 43.0594 17.6191ZM44.488 9.52389H49.7261V14.762H44.488V9.52389Z" fill="#0A102F"/>
<path d="M11.6309 12.1428V24.2856C11.6309 24.6645 11.7814 25.0279 12.0493 25.2958C12.3172 25.5637 12.6806 25.7142 13.0594 25.7142C13.4383 25.7142 13.8017 25.5637 14.0696 25.2958C14.3375 25.0279 14.488 24.6645 14.488 24.2856V13.5714H32.9441L31.5732 14.9423C31.3053 15.2101 31.1548 15.5735 31.1548 15.9523C31.1548 16.3311 31.3053 16.6945 31.5732 16.9624C31.8411 17.2302 32.2044 17.3807 32.5832 17.3807C32.9621 17.3807 33.3254 17.2302 33.5933 16.9624L37.4018 13.1538C37.6692 12.8852 37.8193 12.5217 37.8193 12.1428C37.8193 11.7638 37.6692 11.4003 37.4018 11.1317L33.5933 7.32316C33.3254 7.05528 32.9621 6.90478 32.5832 6.90479C32.2044 6.90479 31.8411 7.05528 31.5732 7.32316C31.3053 7.59104 31.1548 7.95437 31.1548 8.33321C31.1548 8.71205 31.3053 9.07537 31.5732 9.34325L32.9441 10.7142H13.0594C12.6806 10.7142 12.3172 10.8647 12.0493 11.1327C11.7814 11.4006 11.6309 11.7639 11.6309 12.1428Z" fill="#0A102F"/>
<path d="M55.9166 0H14.9642C14.0805 0.00106863 13.2332 0.352601 12.6084 0.977491C11.9835 1.60238 11.6319 2.44961 11.6309 3.33333V6.42857C11.6309 6.80745 11.7814 7.17081 12.0493 7.43872C12.3172 7.70663 12.6806 7.85714 13.0594 7.85714C13.4383 7.85714 13.8017 7.70663 14.0696 7.43872C14.3375 7.17081 14.488 6.80745 14.488 6.42857V3.33333C14.4882 3.20709 14.5384 3.08606 14.6277 2.9968C14.7169 2.90753 14.8379 2.85731 14.9642 2.85714H55.9166C56.0428 2.85731 56.1638 2.90753 56.2531 2.9968C56.3424 3.08606 56.3926 3.20709 56.3928 3.33333V55.2381C56.3925 55.3643 56.3423 55.4853 56.253 55.5745C56.1638 55.6638 56.0428 55.714 55.9166 55.7143H30.405C30.0262 55.7143 29.6628 55.8648 29.3949 56.1327C29.127 56.4006 28.9765 56.764 28.9765 57.1429C28.9765 57.5217 29.127 57.8851 29.3949 58.153C29.6628 58.4209 30.0262 58.5714 30.405 58.5714H55.9166C56.8003 58.5704 57.6475 58.2188 58.2724 57.5939C58.8973 56.969 59.2488 56.1218 59.2499 55.2381V3.33333C59.2488 2.44961 58.8973 1.60238 58.2724 0.977494C57.6475 0.352605 56.8003 0.00107115 55.9166 0Z" fill="#0A102F"/>
<path d="M37.8226 22.619C37.8226 22.2401 37.6721 21.8768 37.4042 21.6089C37.1363 21.341 36.7729 21.1904 36.3941 21.1904H19.7274C19.3485 21.1904 18.9852 21.3409 18.7172 21.6088C18.4493 21.8768 18.2988 22.2401 18.2988 22.619C18.2988 22.9979 18.4493 23.3612 18.7172 23.6292C18.9852 23.8971 19.3485 24.0476 19.7274 24.0476H36.3941C36.7729 24.0476 37.1363 23.897 37.4042 23.6291C37.6721 23.3612 37.8226 22.9979 37.8226 22.619Z" fill="#0A102F"/>
<path d="M24.8407 30.7143H36.3939C36.7728 30.7143 37.1361 30.5638 37.404 30.2959C37.6719 30.028 37.8225 29.6646 37.8225 29.2857C37.8225 28.9069 37.6719 28.5435 37.404 28.2756C37.1361 28.0077 36.7728 27.8572 36.3939 27.8572H24.8407C24.4618 27.8572 24.0984 28.0077 23.8305 28.2756C23.5626 28.5435 23.4121 28.9069 23.4121 29.2857C23.4121 29.6646 23.5626 30.028 23.8305 30.2959C24.0984 30.5638 24.4618 30.7143 24.8407 30.7143Z" fill="#0A102F"/>
<path d="M36.3942 35H27.9911C27.6122 35 27.2488 35.1505 26.9809 35.4184C26.713 35.6863 26.5625 36.0497 26.5625 36.4286C26.5625 36.8075 26.713 37.1708 26.9809 37.4387C27.2488 37.7066 27.6122 37.8571 27.9911 37.8571H36.3942C36.773 37.8571 37.1364 37.7066 37.4043 37.4387C37.6722 37.1708 37.8227 36.8075 37.8227 36.4286C37.8227 36.0497 37.6722 35.6863 37.4043 35.4184C37.1364 35.1505 36.773 35 36.3942 35Z" fill="#0A102F"/>
<path d="M27.3251 44.5239H36.3931C36.772 44.5239 37.1354 44.3734 37.4033 44.1055C37.6712 43.8376 37.8217 43.4742 37.8217 43.0953C37.8217 42.7164 37.6712 42.3531 37.4033 42.0852C37.1354 41.8173 36.772 41.6667 36.3931 41.6667H27.3251C26.9462 41.6667 26.5828 41.8173 26.3149 42.0852C26.047 42.3531 25.8965 42.7164 25.8965 43.0953C25.8965 43.4742 26.047 43.8376 26.3149 44.1055C26.5828 44.3734 26.9462 44.5239 27.3251 44.5239Z" fill="#0A102F"/>
</svg>
