<svg width="158" height="169" viewBox="0 0 158 169" fill="none" xmlns="http://www.w3.org/2000/svg">
<path d="M37.4263 13.3916C38.9879 14.7213 40.8146 15.6058 42.7386 16.2851C48.4616 18.3049 54.8839 17.8654 60.3439 15.2155C59.839 15.9858 58.5661 18.2372 58.2383 18.9509C57.0368 21.5678 56.0272 24.1971 56.1761 27.1329C56.8051 39.5555 71.7274 40.1034 80.1099 36.0353C79.6202 36.5736 76.8994 40.6354 76.5201 41.3861C74.5543 45.2767 73.1593 50.2199 74.9119 54.4418C78.5307 63.1598 89.1036 62.9667 96.3319 59.6273C96.3319 59.6273 95.4435 60.8399 95.048 61.478C94.3772 62.5607 93.7637 63.6714 93.28 64.8522C91.8622 68.3119 91.2295 72.3026 92.4919 75.9069C95.4587 84.3782 106.639 87.4338 114.008 83.1183C114.008 83.1183 113.281 84.057 113 84.5769C112.214 86.03 111.6 87.5808 111.116 89.1591C109.976 92.8702 109.56 96.9517 110.647 100.726C112.852 108.38 125.905 114.853 132.757 108.586C132.756 108.584 132.115 109.837 132.084 109.917C131.724 110.875 131.459 111.873 131.206 112.864C130.595 115.267 130.139 117.684 130.119 120.172C130.045 129.059 134.312 133.233 141.351 137.564" stroke="#0A102F" stroke-width="5.98326" stroke-miterlimit="1.5" stroke-linecap="round" stroke-linejoin="round"/>
<path d="M21.8489 24.8235C23.2877 26.1798 25.0542 27.1386 26.8199 27.9963C31.8151 30.4226 37.1276 31.0876 42.5982 31.1582C42.6024 31.1586 41.7804 33.5616 41.7244 33.7781C41.1866 35.8709 41.1239 38.0986 41.5012 40.2259C42.9321 48.2881 50.9427 53.4942 58.7609 51.4973C58.2295 51.9405 57.6768 54.0601 57.6126 54.4664C57.1116 57.6404 57.0042 61.0773 58.0921 64.1451C60.7194 71.5558 69.7922 76.679 77.5237 75.0137C76.6624 75.8011 76.0062 77.9739 75.9666 78.1708C75.3379 81.2795 75.6624 84.711 77.1178 87.5442C80.5803 94.2864 88.5185 98.0772 95.9274 96.4419C94.9808 97.9293 94.36 99.8624 94.2943 100.313C93.8028 103.676 94.0365 107.15 95.3204 110.317C98.4798 118.109 109.111 123.534 115.488 122.366C115.045 122.57 114.44 123.395 114.405 123.48C114.003 124.45 113.798 125.488 113.684 126.529C113.38 129.316 113.666 132.173 114.257 134.903C116.004 142.966 122.931 151.709 132.222 150.01" stroke="#0A102F" stroke-width="5.98326" stroke-miterlimit="1.5" stroke-linecap="round" stroke-linejoin="round"/>
<path d="M3.88383 38.5071C5.22717 39.8046 5.86285 41.6987 7.43806 42.9452C12.9814 47.3314 19.0925 47.5198 25.6425 47.2116C25.1011 48.0317 24.909 48.9867 24.8162 49.5194C24.3369 52.2644 24.351 55.2368 25.254 57.901C27.6722 65.0352 34.6392 66.727 41.2529 65.5974C41.2529 65.5974 41.0055 66.3623 40.9314 66.7566C40.7925 67.4924 40.6842 68.2353 40.6029 68.9799C40.3015 71.7463 40.5478 74.5224 41.5996 77.1207C44.3348 83.8775 52.3777 88.4872 59.5995 86.9713C59.4415 87.1406 58.5747 90.0641 58.5257 90.3257C57.8309 94.0546 58.0588 97.6273 59.4657 101.163C62.6048 109.053 70.8259 111.013 78.4624 109.303C77.8396 109.994 77.3567 112.605 77.3162 112.863C76.8338 115.942 76.6683 119.021 77.3362 122.09C79.0287 129.871 87.7528 139.212 96.6676 134.955C96.6535 134.929 96.1642 136.207 96.1115 136.388C95.743 137.653 95.5193 138.963 95.4097 140.276C95.143 143.489 95.6357 146.778 96.6324 149.835C98.5172 155.621 103.768 159.583 109.525 161.147C111.322 161.635 113.325 161.301 115.023 161.779" stroke="#0A102F" stroke-width="5.98326" stroke-miterlimit="1.5" stroke-linecap="round" stroke-linejoin="round"/>
</svg>
