<svg width="1600" height="1083" viewBox="0 0 1600 1083" fill="none" xmlns="http://www.w3.org/2000/svg">
<mask id="mask0_7_902" style="mask-type:alpha" maskUnits="userSpaceOnUse" x="0" y="0" width="1600" height="1083">
<rect width="1600" height="1083" fill="white"/>
</mask>
<g mask="url(#mask0_7_902)">
<path d="M376.396 0H0V507.558C0 507.558 115.848 503.735 162.578 456.379C215.491 402.759 161.121 329.73 204.571 268.209C249.788 204.189 341.77 234.613 376.396 164.312C404.755 106.735 376.396 0 376.396 0Z" fill="url(#paint0_linear_7_902)"/>
<path d="M1148.13 1083H1600V473.669C1600 473.669 1460.92 478.259 1404.82 535.11C1341.3 599.482 1406.57 687.154 1354.41 761.011C1300.13 837.869 1189.7 801.344 1148.13 885.741C1114.09 954.864 1148.13 1083 1148.13 1083Z" fill="url(#paint1_linear_7_902)"/>
</g>
<defs>
<linearGradient id="paint0_linear_7_902" x1="0" y1="0" x2="389" y2="410.789" gradientUnits="userSpaceOnUse">
<stop stop-color="#F9EA74" stop-opacity="0.5"/>
<stop offset="1" stop-color="#F9EA74" stop-opacity="0"/>
</linearGradient>
<linearGradient id="paint1_linear_7_902" x1="1600" y1="1083" x2="1205.32" y2="778.334" gradientUnits="userSpaceOnUse">
<stop stop-color="#BEF8FC"/>
<stop offset="1" stop-color="#BEF8FC" stop-opacity="0"/>
</linearGradient>
</defs>
</svg>
