<svg width="50" height="50" viewBox="0 0 50 50" fill="none" xmlns="http://www.w3.org/2000/svg">
<circle cx="25" cy="25" r="25" fill="#3147FF"/>
<path d="M30.8926 29.8509C29.9031 30.8403 27.8186 32.9248 26.4135 34.33C25.6324 35.111 24.367 35.1104 23.5859 34.3294C22.2051 32.9485 20.1622 30.9057 19.1074 29.8509C15.8531 26.5965 15.8531 21.3201 19.1074 18.0658C22.3618 14.8114 27.6382 14.8114 30.8926 18.0658C34.1469 21.3201 34.1469 26.5965 30.8926 29.8509Z" stroke="white" stroke-width="2" stroke-linecap="round" stroke-linejoin="round"/>
<path d="M28.125 23.9583C28.125 25.6842 26.7259 27.0833 25 27.0833C23.2741 27.0833 21.875 25.6842 21.875 23.9583C21.875 22.2324 23.2741 20.8333 25 20.8333C26.7259 20.8333 28.125 22.2324 28.125 23.9583Z" stroke="white" stroke-width="2" stroke-linecap="round" stroke-linejoin="round"/>
</svg>
