<svg width="24" height="25" viewBox="0 0 24 25" fill="none" xmlns="http://www.w3.org/2000/svg">
<path d="M7 8.58691H5C3.89543 8.58691 3 9.48234 3 10.5869V16.5869C3 17.6915 3.89543 18.5869 5 18.5869H7V22.5869L11 18.5869H15C15.5523 18.5869 16.0523 18.3631 16.4142 18.0011M16.4142 18.0011L13 14.5869H9C7.89543 14.5869 7 13.6915 7 12.5869V6.58691C7 5.48234 7.89543 4.58691 9 4.58691H19C20.1046 4.58691 21 5.48234 21 6.58691V12.5869C21 13.6915 20.1046 14.5869 19 14.5869H17V18.5869L16.4142 18.0011Z" stroke="#0A102F" stroke-width="1.5" stroke-linecap="round" stroke-linejoin="round"/>
</svg>
