<svg width="26" height="26" viewBox="0 0 26 26" fill="none" xmlns="http://www.w3.org/2000/svg">
<path fill-rule="evenodd" clip-rule="evenodd" d="M8.14673 4.49142C8.98271 4.42471 9.77635 4.09597 10.4147 3.55201C11.9042 2.28263 14.095 2.28263 15.5846 3.55201C16.2229 4.09597 17.0165 4.42471 17.8525 4.49142C19.8033 4.6471 21.3525 6.19624 21.5082 8.14709C21.5749 8.98308 21.9036 9.77672 22.4476 10.415C23.717 11.9046 23.717 14.0954 22.4476 15.5849C21.9036 16.2232 21.5749 17.0169 21.5082 17.8529C21.3525 19.8037 19.8033 21.3529 17.8525 21.5085C17.0165 21.5752 16.2229 21.904 15.5846 22.4479C14.095 23.7173 11.9042 23.7173 10.4147 22.4479C9.77635 21.904 8.98271 21.5752 8.14673 21.5085C6.19587 21.3529 4.64673 19.8037 4.49105 17.8529C4.42434 17.0169 4.0956 16.2232 3.55165 15.5849C2.28226 14.0954 2.28226 11.9046 3.55165 10.415C4.0956 9.77672 4.42434 8.98308 4.49105 8.14709C4.64673 6.19624 6.19587 4.6471 8.14673 4.49142ZM17.8188 11.3192C18.3265 10.8115 18.3265 9.98842 17.8188 9.48074C17.3112 8.97306 16.4881 8.97306 15.9804 9.48074L11.6996 13.7615L10.0188 12.0807C9.51117 11.5731 8.68805 11.5731 8.18037 12.0807C7.67269 12.5884 7.67269 13.4115 8.18037 13.9192L10.7804 16.5192C11.2881 17.0269 12.1112 17.0269 12.6188 16.5192L17.8188 11.3192Z" fill="#0A102F"/>
</svg>
