<svg width="26" height="26" viewBox="0 0 26 26" fill="none" xmlns="http://www.w3.org/2000/svg">
<path fill-rule="evenodd" clip-rule="evenodd" d="M8.14673 4.49145C8.98272 4.42474 9.77635 4.096 10.4147 3.55204C11.9042 2.28266 14.095 2.28266 15.5846 3.55204C16.2229 4.096 17.0165 4.42474 17.8525 4.49145C19.8033 4.64713 21.3525 6.19627 21.5082 8.14712C21.5749 8.98311 21.9036 9.77675 22.4476 10.4151C23.717 11.9046 23.717 14.0954 22.4476 15.585C21.9036 16.2233 21.5749 17.0169 21.5082 17.8529C21.3525 19.8037 19.8033 21.3529 17.8525 21.5086C17.0165 21.5753 16.2229 21.904 15.5846 22.448C14.095 23.7174 11.9042 23.7174 10.4147 22.448C9.77635 21.904 8.98272 21.5753 8.14673 21.5086C6.19587 21.3529 4.64673 19.8037 4.49105 17.8529C4.42434 17.0169 4.0956 16.2233 3.55165 15.585C2.28226 14.0954 2.28226 11.9046 3.55165 10.4151C4.0956 9.77675 4.42434 8.98311 4.49105 8.14712C4.64673 6.19627 6.19587 4.64713 8.14673 4.49145ZM17.8188 11.3192C18.3265 10.8116 18.3265 9.98845 17.8188 9.48077C17.3112 8.97309 16.4881 8.97309 15.9804 9.48077L11.6996 13.7615L10.0188 12.0808C9.51117 11.5731 8.68805 11.5731 8.18037 12.0808C7.67269 12.5884 7.67269 13.4116 8.18037 13.9192L10.7804 16.5192C11.2881 17.0269 12.1112 17.0269 12.6188 16.5192L17.8188 11.3192Z" fill="#3147FF"/>
</svg>
