<svg width="17" height="16" viewBox="0 0 17 16" fill="none" xmlns="http://www.w3.org/2000/svg">
<path fill-rule="evenodd" clip-rule="evenodd" d="M8.26393 0.0325928C3.77525 0.0325928 0.164062 3.64378 0.164062 8.13246C0.164062 11.7099 2.49277 14.7474 5.69897 15.8273C6.10397 15.8948 6.23896 15.6586 6.23896 15.4223C6.23896 15.2198 6.23896 14.7136 6.23896 14.0386C3.97775 14.5449 3.50526 12.9586 3.50526 12.9586C3.13401 12.0136 2.59402 11.7774 2.59402 11.7774C1.85153 11.2712 2.66152 11.2712 2.66152 11.2712C3.47151 11.3387 3.91025 12.1149 3.91025 12.1149C4.61899 13.3636 5.80022 12.9924 6.27271 12.7899C6.34021 12.2499 6.54271 11.9124 6.77895 11.7099C4.99023 11.5074 3.10026 10.7987 3.10026 7.69372C3.10026 6.81623 3.40401 6.07374 3.944 5.53375C3.8765 5.33126 3.57276 4.52127 4.0115 3.37379C4.0115 3.37379 4.68649 3.17129 6.23896 4.21752C6.8802 4.04878 7.58894 3.94753 8.26393 3.94753C8.93892 3.94753 9.64766 4.04878 10.2889 4.21752C11.8414 3.17129 12.5164 3.37379 12.5164 3.37379C12.9551 4.48752 12.6851 5.29751 12.5839 5.53375C13.0901 6.10749 13.4276 6.81623 13.4276 7.69372C13.4276 10.7987 11.5376 11.4737 9.71516 11.6762C10.0189 11.9124 10.2551 12.4186 10.2551 13.1611C10.2551 14.2411 10.2551 15.1186 10.2551 15.3886C10.2551 15.5911 10.3901 15.8611 10.8289 15.7936C14.0351 14.7474 16.3638 11.7099 16.3638 8.13246C16.3638 3.64378 12.7526 0.0325928 8.26393 0.0325928Z" fill="#0A102F"/>
</svg>
