<svg width="17" height="17" viewBox="0 0 17 17" fill="none" xmlns="http://www.w3.org/2000/svg">
<path d="M8.50289 1.5584C10.7638 1.5584 11.0315 1.56687 11.9247 1.60759C12.4617 1.61416 12.9936 1.71277 13.4972 1.89912C13.8625 2.03999 14.1942 2.25577 14.471 2.53259C14.7479 2.80941 14.9636 3.14112 15.1045 3.50638C15.2909 4.01006 15.3895 4.54196 15.396 5.07896C15.4364 5.97211 15.4452 6.23985 15.4452 8.50073C15.4452 10.7616 15.4368 11.0294 15.396 11.9225C15.3895 12.4595 15.2909 12.9914 15.1045 13.4951C14.9636 13.8603 14.7479 14.1921 14.471 14.4689C14.1942 14.7457 13.8625 14.9615 13.4972 15.1023C12.9936 15.2887 12.4617 15.3873 11.9247 15.3939C11.0319 15.4342 10.7642 15.4431 8.50289 15.4431C6.24161 15.4431 5.97386 15.4346 5.08112 15.3939C4.54412 15.3873 4.01222 15.2887 3.50854 15.1023C3.14328 14.9615 2.81157 14.7457 2.53475 14.4689C2.25793 14.1921 2.04215 13.8603 1.90128 13.4951C1.71493 12.9914 1.61632 12.4595 1.60975 11.9225C1.56943 11.0294 1.56056 10.7616 1.56056 8.50073C1.56056 6.23985 1.56903 5.97211 1.60975 5.07896C1.61632 4.54196 1.71493 4.01006 1.90128 3.50638C2.04215 3.14112 2.25793 2.80941 2.53475 2.53259C2.81157 2.25577 3.14328 2.03999 3.50854 1.89912C4.01222 1.71277 4.54412 1.61416 5.08112 1.60759C5.97427 1.56727 6.24201 1.5584 8.50289 1.5584ZM8.50289 0.0325928C6.20451 0.0325928 5.91499 0.0422702 5.01177 0.0833992C4.30896 0.0973782 3.61362 0.230448 2.95532 0.476948C2.3906 0.689716 1.8791 1.02314 1.45653 1.45396C1.02532 1.87669 0.691605 2.38848 0.478704 2.95356C0.232205 3.61186 0.0991352 4.30721 0.0851563 5.01001C0.0448337 5.91243 0.0351562 6.20194 0.0351562 8.50033C0.0351562 10.7987 0.0448336 11.0882 0.0859626 11.9915C0.0999416 12.6943 0.233011 13.3896 0.479511 14.0479C0.692175 14.6129 1.02561 15.1247 1.45653 15.5475C1.87934 15.9784 2.39112 16.3119 2.95612 16.5245C3.61443 16.771 4.30977 16.9041 5.01257 16.9181C5.9158 16.9584 6.20411 16.9689 8.5037 16.9689C10.8033 16.9689 11.0916 16.9592 11.9948 16.9181C12.6976 16.9041 13.393 16.771 14.0513 16.5245C14.6136 16.3065 15.1243 15.9736 15.5506 15.547C15.9769 15.1204 16.3095 14.6096 16.5271 14.0471C16.7736 13.3888 16.9067 12.6935 16.9206 11.9907C16.961 11.0882 16.9706 10.7987 16.9706 8.50033C16.9706 6.20194 16.961 5.91243 16.9198 5.0092C16.9058 4.3064 16.7728 3.61106 16.5263 2.95275C16.3136 2.38774 15.9802 1.87597 15.5493 1.45316C15.1265 1.02224 14.6147 0.688805 14.0497 0.476141C13.3914 0.229641 12.696 0.0965718 11.9932 0.0825928C11.0908 0.0422702 10.8013 0.0325928 8.50289 0.0325928Z" fill="#0A102F"/>
<path d="M8.50464 4.15356C7.64461 4.15356 6.80389 4.40859 6.0888 4.8864C5.37372 5.36421 4.81637 6.04333 4.48725 6.8379C4.15813 7.63246 4.07202 8.50677 4.2398 9.35028C4.40759 10.1938 4.82173 10.9686 5.42987 11.5767C6.038 12.1849 6.81281 12.599 7.65631 12.7668C8.49982 12.9346 9.37413 12.8485 10.1687 12.5193C10.9633 12.1902 11.6424 11.6329 12.1202 10.9178C12.598 10.2027 12.853 9.36198 12.853 8.50195C12.853 7.34869 12.3949 6.24266 11.5794 5.42718C10.7639 4.6117 9.6579 4.15356 8.50464 4.15356ZM8.50464 11.3245C7.94639 11.3245 7.40067 11.159 6.9365 10.8488C6.47233 10.5387 6.11055 10.0979 5.89691 9.58211C5.68328 9.06635 5.62738 8.49882 5.73629 7.95129C5.8452 7.40377 6.11403 6.90083 6.50877 6.50609C6.90352 6.11134 7.40645 5.84252 7.95398 5.73361C8.50151 5.6247 9.06903 5.68059 9.58479 5.89423C10.1006 6.10786 10.5414 6.46964 10.8515 6.93381C11.1617 7.39798 11.3272 7.9437 11.3272 8.50195C11.3272 9.25055 11.0298 9.96848 10.5005 10.4978C9.97117 11.0272 9.25323 11.3245 8.50464 11.3245Z" fill="#0A102F"/>
<path d="M13.0161 4.99771C13.5773 4.99771 14.0323 4.54277 14.0323 3.98158C14.0323 3.42039 13.5773 2.96545 13.0161 2.96545C12.4549 2.96545 12 3.42039 12 3.98158C12 4.54277 12.4549 4.99771 13.0161 4.99771Z" fill="#0A102F"/>
</svg>
