<svg width="24" height="24" viewBox="0 0 24 24" fill="none" xmlns="http://www.w3.org/2000/svg">
<path d="M4.8 4.80005C3.47452 4.80005 2.4 5.87457 2.4 7.20005V12C2.4 13.3255 3.47452 14.4 4.8 14.4L4.8 7.20005H16.8C16.8 5.87457 15.7255 4.80005 14.4 4.80005H4.8Z" fill="#0A102F"/>
<path fill-rule="evenodd" clip-rule="evenodd" d="M7.2 12C7.2 10.6746 8.27452 9.60005 9.6 9.60005H19.2C20.5255 9.60005 21.6 10.6746 21.6 12V16.8C21.6 18.1255 20.5255 19.2 19.2 19.2H9.6C8.27452 19.2 7.2 18.1255 7.2 16.8V12ZM14.4 16.8C15.7255 16.8 16.8 15.7255 16.8 14.4C16.8 13.0746 15.7255 12 14.4 12C13.0745 12 12 13.0746 12 14.4C12 15.7255 13.0745 16.8 14.4 16.8Z" fill="#0A102F"/>
</svg>
