<svg width="20" height="20" viewBox="0 0 20 20" fill="none" xmlns="http://www.w3.org/2000/svg">
<path fill-rule="evenodd" clip-rule="evenodd" d="M9.99999 19.5999C15.3019 19.5999 19.6 15.3018 19.6 9.9999C19.6 4.69797 15.3019 0.399902 9.99999 0.399902C4.69806 0.399902 0.399994 4.69797 0.399994 9.9999C0.399994 15.3018 4.69806 19.5999 9.99999 19.5999ZM11 5.1999C11 4.64762 10.5523 4.1999 9.99999 4.1999C9.44771 4.1999 8.99999 4.64762 8.99999 5.1999V9.9999C8.99999 10.2651 9.10535 10.5195 9.29289 10.707L12.687 14.1011C13.0775 14.4916 13.7107 14.4916 14.1012 14.1011C14.4917 13.7106 14.4917 13.0774 14.1012 12.6869L11 9.58569V5.1999Z" fill="#0A102F"/>
</svg>
