<svg width="15" height="12" viewBox="0 0 15 12" fill="none" xmlns="http://www.w3.org/2000/svg">
<path d="M14.2643 1.72827C13.7405 1.96106 13.1876 2.10655 12.6056 2.19385C13.1876 1.84466 13.6532 1.29179 13.8569 0.622515C13.304 0.942601 12.6929 1.17539 12.0237 1.32088C11.4999 0.768008 10.7433 0.418823 9.92856 0.418823C8.35723 0.418823 7.07689 1.69917 7.07689 3.2705C7.07689 3.50329 7.10598 3.70698 7.16418 3.91067C4.80718 3.79428 2.68297 2.65943 1.25713 0.913502C1.02434 1.34998 0.87885 1.81556 0.87885 2.33934C0.87885 3.3287 1.37353 4.20166 2.1592 4.72544C1.69362 4.69634 1.25713 4.57995 0.849751 4.37625V4.40535C0.849751 5.80209 1.83911 6.96604 3.14855 7.22793C2.91576 7.28613 2.65387 7.31523 2.39199 7.31523C2.21739 7.31523 2.0137 7.28613 1.83911 7.25703C2.21739 8.39188 3.26495 9.23575 4.51619 9.23575C3.52684 9.99232 2.30469 10.4579 0.966146 10.4579C0.733356 10.4579 0.500566 10.4579 0.296875 10.4288C1.57722 11.2436 3.06126 11.7091 4.69079 11.7091C9.95766 11.7091 12.8384 7.34433 12.8384 3.56149C12.8384 3.44509 12.8384 3.2996 12.8384 3.18321C13.3913 2.80492 13.886 2.31024 14.2643 1.72827Z" fill="#0A102F"/>
</svg>
