<svg width="60" height="60" viewBox="0 0 60 60" fill="none" xmlns="http://www.w3.org/2000/svg">
<circle cx="30" cy="30" r="30" fill="#FFC900"/>
<path d="M41.6573 15.4792C35.4142 12.3081 31.5494 15.058 36.1821 16.1481C47.9252 18.9228 49.5355 33.4157 38.2632 41.5169C24.8851 51.1046 8.08813 38.1229 16.6105 24.7943C20.2275 19.1458 24.3153 16.0985 28.4031 15.9747C31.9953 15.8756 30.8557 14.067 27.1891 14.067C18.1465 14.067 8.41024 25.5871 10.2188 34.159C11.6804 41.1701 17.4281 45.7286 26.223 46.8186C46.7113 49.3704 59.0488 24.2988 41.6573 15.4792Z" fill="#0A102F"/>
<path d="M26.4951 34.7043C25.405 32.9701 25.306 32.8958 24.2159 32.9701C21.3669 33.1931 23.2497 37.256 26.842 38.5938C29.8149 39.7087 34.4229 39.1141 35.9837 37.4542C38.3372 34.952 37.7674 30.9881 35.2899 32.6232C35.1413 32.7223 34.7945 33.3169 34.522 33.9115C32.6887 37.9745 28.7495 38.3461 26.4951 34.7043Z" fill="#0A102F"/>
<path d="M37.2712 26.7768C36.3794 24.6462 34.9921 24.126 34.0011 25.5629C32.8119 27.3218 33.4809 28.9569 35.3885 28.9569C37.2961 28.9569 37.8906 28.288 37.2712 26.7768Z" fill="#0A102F"/>
<path d="M26.9906 27.1232C26.9906 25.389 25.8758 24.5962 24.3398 25.2404C22.9525 25.8102 22.3083 28.4363 23.2993 29.3529C24.86 30.7651 26.9906 29.452 26.9906 27.1232Z" fill="#0A102F"/>
</svg>
